<svg width="31" height="40" viewBox="0 0 31 40" fill="none" xmlns="http://www.w3.org/2000/svg">
<path d="M20.5953 18.9756L19.716 20.4939C19.6905 20.5428 19.665 20.5924 19.6395 20.642L19.6119 20.6399H19.5354C16.3238 20.63 14.8232 19.9888 14.4548 19.0373C15.876 15.8342 16.2529 13.2878 14.6659 12.4143C13.2489 10.9264 8.23276 11.89 4.53442 13.1228C9.04895 9.85165 12.5652 8.27171 15.2277 7.83032C18.6094 7.26848 20.6144 8.54448 21.5404 10.5268C22.6839 12.9754 22.1816 16.5009 20.5953 18.9756Z" fill="url(#paint0_linear_739_290)"/>
<path d="M17.2277 24.9814C13.6952 29.5547 7.6574 34.6304 0 39.5027C3.10533 36.8352 8.80587 29.8056 12.3363 23.6813C13.6236 24.1489 15.2369 24.567 17.1526 24.9658C17.1774 24.9708 17.2022 24.9765 17.2277 24.9814Z" fill="url(#paint1_linear_739_290)"/>
<path d="M25.6482 0.497314C24.4516 4.21336 21.2372 1.91076 20.2602 3.68129C20.2495 3.66357 20.2396 3.64586 20.2304 3.62815L20.2191 3.65578C19.8556 2.8318 20.0419 2.05246 20.9361 1.27312C21.7862 0.838808 22.1674 0.918868 22.1936 0.909658C22.2149 0.902573 23.3832 0.765125 23.9457 0.701361C23.9472 0.700652 23.9486 0.700652 23.95 0.700652C24.4799 0.604297 25.0496 0.535573 25.6482 0.497314Z" fill="#0FDAFE"/>
<path opacity="0.45" d="M23.7944 7.86273C23.7894 7.86914 23.7844 7.87626 23.7794 7.88266C23.7616 7.89476 23.7431 7.90686 23.7253 7.91897C23.7488 7.90046 23.7716 7.88195 23.7944 7.86273Z" fill="#070002"/>
<path d="M24.8094 5.96628C24.791 6.04563 24.7683 6.12356 24.7421 6.19937C24.5197 6.67973 24.1945 7.10199 23.7942 7.43782C23.7715 7.45695 23.7488 7.47537 23.7254 7.49379C23.7247 7.49379 23.724 7.4945 23.7233 7.49521C23.114 7.98194 22.3425 8.27172 21.5029 8.27172C21.1338 8.27172 20.7774 8.21574 20.4423 8.1116C19.7288 7.6702 19.2534 6.88094 19.2534 5.98045C19.2534 5.95352 19.2541 5.9266 19.2548 5.89968C19.2555 5.87771 19.2563 5.85504 19.2577 5.83237C19.2584 5.8267 19.2584 5.82104 19.2591 5.81537C19.2605 5.79411 19.2619 5.77215 19.264 5.75089C19.264 5.74452 19.2648 5.73885 19.2655 5.73318C19.2676 5.71476 19.269 5.69705 19.2711 5.67934C19.2725 5.668 19.274 5.65737 19.2754 5.64675C19.2782 5.62549 19.281 5.60494 19.2846 5.5844C19.2881 5.56031 19.2924 5.53622 19.2973 5.51213C19.2973 5.51001 19.2981 5.50859 19.2981 5.50717C19.3073 5.459 19.3179 5.41223 19.3299 5.36547C19.3391 5.32651 19.3505 5.28754 19.3625 5.24928C19.3689 5.2259 19.3767 5.20252 19.3845 5.17985C19.3937 5.15222 19.4036 5.12388 19.4142 5.09695C19.4249 5.06932 19.4355 5.04169 19.4468 5.01477C19.4582 4.98785 19.4702 4.96163 19.4823 4.93471C19.4943 4.9085 19.5071 4.88228 19.5198 4.85678C19.5205 4.85678 19.5205 4.85607 19.5205 4.85607C19.5333 4.82985 19.5474 4.80435 19.5609 4.77884C19.5751 4.75334 19.5892 4.72854 19.6041 4.70303C19.619 4.67824 19.6346 4.65344 19.6502 4.62935C19.6672 4.60243 19.6849 4.5755 19.7033 4.54929C19.7224 4.52166 19.7423 4.49403 19.7628 4.4671C19.782 4.44231 19.8011 4.41751 19.8209 4.39342C19.8351 4.37571 19.8493 4.3587 19.8648 4.3417C19.8762 4.32753 19.8889 4.31336 19.9017 4.2999C19.9187 4.28006 19.9364 4.26093 19.9548 4.24251C19.9754 4.22055 19.9966 4.19929 20.0186 4.17875C20.0342 4.16316 20.0505 4.14828 20.0668 4.13411C20.0824 4.11853 20.0987 4.10436 20.1157 4.09019C20.1341 4.07318 20.1525 4.05759 20.1716 4.04201C20.1716 4.0413 20.1723 4.0413 20.1723 4.0413C20.1964 4.02146 20.2212 4.00162 20.2467 3.9832C20.2574 3.9747 20.2687 3.96691 20.2793 3.95911C20.2914 3.9499 20.3034 3.94069 20.3162 3.93219C20.3169 3.93148 20.3183 3.93077 20.3197 3.93007C20.3303 3.92227 20.3417 3.91448 20.353 3.90669C20.3757 3.89181 20.3983 3.87693 20.4217 3.86276C20.4224 3.86205 20.4239 3.86134 20.4253 3.86063C20.4834 3.82946 20.5464 3.80608 20.613 3.79191L20.7448 3.7742L22.385 3.55598L23.848 3.36115C23.8728 3.37957 23.8976 3.39799 23.9217 3.41712C23.7998 3.72035 23.6858 3.99383 23.5554 4.23755C23.0878 5.11042 22.414 5.60353 20.4621 5.73318C20.28 5.78632 20.0845 5.82741 19.9293 5.91527C19.7387 6.02366 19.6105 6.20362 19.6488 6.56566L20.1702 6.50544L24.2611 6.03004L24.7563 5.97265L24.7754 5.97053L24.8094 5.96628Z" fill="url(#paint2_linear_739_290)"/>
<path d="M19.8024 35.0435C22.8263 32.4086 30.5489 26.198 19.8506 24.8518C18.9048 24.6846 18.0142 24.516 17.1803 24.3438C17.1548 24.3389 17.13 24.3332 17.1052 24.3282C15.1894 23.9294 13.5762 23.5113 12.2889 23.0437C12.2605 23.0338 12.2329 23.0232 12.2052 23.0133C7.60783 21.3193 7.25996 18.9805 12.2456 14.6495C12.9265 14.0579 13.6251 13.5138 14.3329 13.0186C15.3389 13.6874 15.436 15.1256 14.9195 17.0088C14.2443 17.8562 13.9014 18.6681 14.0764 19.3412C14.0891 19.3907 14.1047 19.4389 14.1239 19.4864C14.4923 20.4379 15.9929 21.0791 19.2045 21.089H19.281L19.3086 21.0911C40.0519 22.5464 22.0696 33.4962 19.8024 35.0435Z" fill="url(#paint3_linear_739_290)"/>
<path d="M22.0363 10.6409C21.862 10.2597 21.6473 9.90404 21.3909 9.58238C25.8097 8.29222 29.5024 9.18917 30.038 12.6487C31.1185 16.695 26.4254 22.1404 22.9914 15.7109C27.2799 17.0272 30.2166 9.62631 22.499 11.8857C22.4841 11.8921 22.4699 11.8992 22.455 11.9062C22.3565 11.462 22.2184 11.0376 22.0363 10.6409Z" fill="url(#paint4_linear_739_290)"/>
<defs>
<linearGradient id="paint0_linear_739_290" x1="12.9583" y1="23.5565" x2="13.6377" y2="5.94176" gradientUnits="userSpaceOnUse">
<stop offset="0.0955" stop-color="#9974FC"/>
<stop offset="0.3405" stop-color="#8087FC"/>
<stop offset="0.5695" stop-color="#6D95FC"/>
<stop offset="0.6443" stop-color="#659BFC"/>
<stop offset="0.7609" stop-color="#4FABFD"/>
<stop offset="0.9039" stop-color="#2BC5FD"/>
<stop offset="1" stop-color="#0FDAFE"/>
</linearGradient>
<linearGradient id="paint1_linear_739_290" x1="1.22127" y1="39.4381" x2="18.2006" y2="20.6122" gradientUnits="userSpaceOnUse">
<stop offset="0.2872" stop-color="#C653FB"/>
<stop offset="0.553" stop-color="#A869FC"/>
<stop offset="0.7276" stop-color="#9974FC"/>
</linearGradient>
<linearGradient id="paint2_linear_739_290" x1="19.4789" y1="10.8645" x2="21.9521" y2="5.88936" gradientUnits="userSpaceOnUse">
<stop stop-color="#6D95FC"/>
<stop offset="0.0348" stop-color="#669AFC"/>
<stop offset="0.2031" stop-color="#46B1FD"/>
<stop offset="0.379" stop-color="#2EC3FD"/>
<stop offset="0.5634" stop-color="#1DD0FE"/>
<stop offset="0.762" stop-color="#12D8FE"/>
<stop offset="1" stop-color="#0FDAFE"/>
</linearGradient>
<linearGradient id="paint3_linear_739_290" x1="18.4791" y1="32.15" x2="19.49" y2="9.91081" gradientUnits="userSpaceOnUse">
<stop offset="0.1418" stop-color="#C653FB"/>
<stop offset="0.2032" stop-color="#B65EFB"/>
<stop offset="0.3097" stop-color="#A16EFC"/>
<stop offset="0.379" stop-color="#9974FC"/>
<stop offset="0.6848" stop-color="#7C8AFC"/>
<stop offset="0.8977" stop-color="#6D95FC"/>
</linearGradient>
<linearGradient id="paint4_linear_739_290" x1="25.4752" y1="18.4857" x2="25.8944" y2="9.67688" gradientUnits="userSpaceOnUse">
<stop offset="0.2453" stop-color="#6D95FC"/>
<stop offset="0.4584" stop-color="#6A97FC"/>
<stop offset="0.6032" stop-color="#619EFC"/>
<stop offset="0.7277" stop-color="#52A9FD"/>
<stop offset="0.8406" stop-color="#3CB9FD"/>
<stop offset="0.9448" stop-color="#21CDFE"/>
<stop offset="1" stop-color="#0FDAFE"/>
</linearGradient>
</defs>
</svg>
