<svg width="50" height="51" viewBox="0 0 50 51" fill="none" xmlns="http://www.w3.org/2000/svg">
<path fill-rule="evenodd" clip-rule="evenodd" d="M0 10.9521C0 5.4293 4.47715 0.952148 10 0.952148H40C45.5228 0.952148 50 5.4293 50 10.9521V40.9521C50 46.4749 45.5228 50.9521 40 50.9521H10C4.47715 50.9521 0 46.4749 0 40.9521V10.9521ZM10 5.95215C7.23857 5.95215 5 8.19072 5 10.9521V40.9521C5 43.7136 7.23857 45.9521 10 45.9521H25V28.4521H22.5C21.1192 28.4521 20 27.3329 20 25.9521C20 24.5714 21.1192 23.4521 22.5 23.4521H25V19.7021C25 14.8696 28.9175 10.9521 33.75 10.9521H35.25C36.6307 10.9521 37.75 12.0714 37.75 13.4521C37.75 14.8328 36.6307 15.9521 35.25 15.9521H33.75C31.679 15.9521 30 17.6311 30 19.7021V23.4521H35.25C36.6307 23.4521 37.75 24.5714 37.75 25.9521C37.75 27.3329 36.6307 28.4521 35.25 28.4521H30V45.9521H40C42.7615 45.9521 45 43.7136 45 40.9521V10.9521C45 8.19072 42.7615 5.95215 40 5.95215H10Z" fill="#9974FC"/>
</svg>
