<svg width="50" height="51" viewBox="0 0 50 51" fill="none" xmlns="http://www.w3.org/2000/svg">
<path fill-rule="evenodd" clip-rule="evenodd" d="M14.6741 1.25897C10.6044 1.44259 7.07703 2.43758 4.22873 5.27385C1.37049 8.12501 0.387854 11.6664 0.203771 15.6937C0.089341 18.2074 -0.579785 37.1978 1.36054 42.178C2.66902 45.5379 5.2461 48.1212 8.63669 49.4338C10.2188 50.0492 12.0249 50.4658 14.6741 50.5874C36.8262 51.5899 45.0377 51.0441 48.5004 42.178C49.1149 40.5998 49.5378 38.7954 49.6547 36.1526C50.6671 13.9439 49.4906 9.12999 45.6298 5.27385C42.5676 2.21921 38.9655 0.139849 14.6741 1.25897ZM14.8781 46.1209C12.4527 46.0117 11.1367 45.6076 10.2586 45.2676C8.04964 44.409 6.39042 42.7567 5.53718 40.5606C4.05954 36.7764 4.54962 18.8034 4.68146 15.8951C4.81082 13.0465 5.38793 10.443 7.39791 8.43302C9.88551 5.95158 13.0994 4.73544 34.9828 5.72307C37.8386 5.85209 40.4481 6.42802 42.4631 8.43302C44.9507 10.9144 46.1845 14.1531 45.1795 35.9525C45.0701 38.3718 44.6646 39.6846 44.3238 40.5606C42.0725 46.3299 36.8933 47.1308 14.8781 46.1209ZM35.2242 12.6762C35.2242 14.3189 36.56 15.6547 38.2093 15.6547C39.8586 15.6547 41.1969 14.3189 41.1969 12.6762C41.1969 11.0335 39.8586 9.69888 38.2093 9.69888C36.56 9.69888 35.2242 11.0335 35.2242 12.6762ZM12.1567 25.922C12.1567 32.9593 17.8757 38.6648 24.9305 38.6648C31.9853 38.6648 37.7043 32.9593 37.7043 25.922C37.7043 18.8846 31.9853 13.1828 24.9305 13.1828C17.8757 13.1828 12.1567 18.8846 12.1567 25.922ZM16.6393 25.922C16.6393 21.3562 20.3508 17.6517 24.9305 17.6517C29.5102 17.6517 33.2217 21.3562 33.2217 25.922C33.2217 30.4903 29.5102 34.1959 24.9305 34.1959C20.3508 34.1959 16.6393 30.4903 16.6393 25.922Z" fill="#9974FC"/>
</svg>
