<svg width="50" height="51" viewBox="0 0 50 51" fill="none" xmlns="http://www.w3.org/2000/svg">
<path fill-rule="evenodd" clip-rule="evenodd" d="M10 0.952148C4.47715 0.952148 0 5.4293 0 10.9521V40.9521C0 46.4749 4.47715 50.9521 10 50.9521H40C45.5228 50.9521 50 46.4749 50 40.9521V10.9521C50 5.4293 45.5228 0.952148 40 0.952148H10ZM5 10.9521C5 8.19072 7.23857 5.95215 10 5.95215H40C42.7615 5.95215 45 8.19072 45 10.9521V40.9521C45 43.7136 42.7615 45.9521 40 45.9521H10C7.23857 45.9521 5 43.7136 5 40.9521V10.9521ZM17.5 23.4521C17.5 22.0714 16.3807 20.9521 15 20.9521C13.6193 20.9521 12.5 22.0714 12.5 23.4521V38.4521C12.5 39.8329 13.6193 40.9521 15 40.9521C16.3807 40.9521 17.5 39.8329 17.5 38.4521V23.4521ZM18.75 14.7021C18.75 16.7732 17.0711 18.4521 15 18.4521C12.9289 18.4521 11.25 16.7732 11.25 14.7021C11.25 12.6311 12.9289 10.9521 15 10.9521C17.0711 10.9521 18.75 12.6311 18.75 14.7021ZM25 20.9521C25.8487 20.9521 26.5988 21.3751 27.0508 22.0219C28.3323 21.3277 29.759 20.9521 31.25 20.9521C36.6485 20.9521 40 25.7666 40 29.8806V29.8997V29.9184V29.9374V29.9564V29.9754V29.9946V30.0136V30.0329V30.0521V30.0714V30.0909V30.1101V30.1296V30.1491V30.1686V30.1881V30.2076V30.2274V30.2472V30.2666V30.2866V30.3064V30.3261V30.3461V30.3659V30.3859V30.4059V30.4261V30.4461V30.4664V30.4864V30.5066V30.5269V30.5471V30.5676V30.5879V30.6084V30.6286V30.6491V30.6696V30.6904V30.7109V30.7314V30.7521V30.7729V30.7934V30.8141V30.8351V30.8559V30.8766V30.8976V30.9186V30.9394V30.9604V30.9814V31.0024V31.0236V31.0446V31.0659V31.0869V31.1081V31.1294V31.1506V31.1719V31.1931V31.2144V31.2359V31.2571V31.2786V31.3001V31.3216V31.3429V31.3646V31.3861V31.4076V31.4291V31.4509V31.4724V31.4941V31.5156V31.5374V31.5591V31.5809V31.6026V31.6244V31.6461V31.6681V31.6899V31.7119V31.7336V31.7556V31.7774V31.7994V31.8214V31.8434V31.8654V31.8874V31.9094V31.9314V31.9534V31.9754V31.9976V32.0196V32.0419V32.0639V32.0861V32.1082V32.1304V32.1526V32.1749V32.1969V32.2191V32.2414V32.2636V32.2859V32.3081V32.3304V32.3526V32.3751V32.3974V32.4196V32.4419V32.4644V32.4866V32.5089V32.5314V32.5536V32.5761V32.5984V32.6206V32.6431V32.6656V32.6879V32.7104V32.7326V32.7551V32.7776V32.7999V32.8224V32.8446V32.8671V32.8896V32.9119V32.9344V32.9569V32.9791V33.0016V33.0241V33.0466V33.0689V33.0914V33.1139V33.1361V33.1586V33.1811V33.2034V33.2259V33.2481V33.2706V33.2929V33.3154V33.3379V33.3601V33.3826V33.4049V33.4271V33.4496V33.4719V33.4944V33.5166V33.5389V33.5611V33.5836V33.6059V33.6282V33.6504V33.6726V33.6949V33.7171V33.7394V33.7617V33.7839V33.8061V33.8281V33.8504V33.8726V33.8946V33.9169V33.9389V33.9611V33.9832V34.0054V34.0274V34.0494V34.0714V34.0934V34.1154V34.1374V34.1594V34.1814V34.2034V34.2252V34.2471V34.2689V34.2909V34.3126V34.3344V34.3561V34.3779V34.3996V34.4214V34.4431V34.4649V34.4866V34.5081V34.5299V34.5514V34.5729V34.5946V34.6161V34.6376V34.6589V34.6804V34.7019V34.7234V34.7446V34.7659V34.7874V34.8086V34.8299V34.8511V34.8724V34.8934V34.9146V34.9356V34.9569V34.9779V34.9989V35.0199V35.0409V35.0619V35.0826V35.1036V35.1244V35.1451V35.1659V35.1866V35.2074V35.2281V35.2486V35.2694V35.2899V35.3104V35.3309V35.3514V35.3719V35.3921V35.4126V35.4329V35.4531V35.4734V35.4936V35.5136V35.5339V35.5539V35.5739V35.5939V35.6139V35.6339V35.6536V35.6734V35.6934V35.7132V35.7326V35.7524V35.7721V35.7916V35.8111V35.8306V35.8501V35.8694V35.8889V35.9081V35.9274V35.9466V35.9659V35.9849V36.0041V36.0231V36.0421V36.0609V36.0799V36.0986V36.1174V36.1362V36.1549V36.1736V36.1922V36.2106V36.2291V36.2477V36.2659V36.2844V36.3026V36.3209V36.3389V36.3572V36.3752V36.3931V36.4111V36.4291V36.4469V36.4646V36.4824V36.5001V36.5176V36.5351V36.5527V36.5701V36.5876V36.6049V36.6221V36.6394V36.6566V36.6737V36.6907V36.7076V36.7246V36.7414V36.7581V36.7749V36.7916V36.8084V36.8249V36.8414V36.8576V36.8741V36.8904V36.9066V36.9226V36.9389V36.9549V36.9709V36.9866V37.0026V37.0184V37.0341V37.0496V37.0651V37.0807V37.0961V37.1116V37.1269V37.1421V37.1572V37.1724V37.1874V37.2021V37.2171V37.2319V37.2466V37.2614V37.2759V37.2904V37.3049V37.3191V37.3334V37.3476V37.3619V37.3759V37.3899V37.4039V37.4176V37.4314V37.4451V37.4586V37.4724V37.4856V37.4991V37.5124V37.5257V37.5389V37.5519V37.5649V37.5779V37.5906V37.6034V37.6161V37.6287V37.6411V37.6536V37.6659V37.6781V37.6904V37.7024V37.7144V37.7264V37.7381V37.7499V37.7617V37.7731V37.7846V37.7962V37.8074V37.8186V37.8299V37.8409V37.8519V37.8629V37.8736V37.8844V37.8949V37.9054V37.9159V37.9264V37.9366V37.9466V37.9569V37.9669V37.9766V37.9866V37.9964V38.0059V38.0154V38.0249V38.0341V38.0434V38.0527V38.0616V38.0706V38.0796V38.0884V38.0971V38.1057V38.1141V38.1227V38.1309V38.1391V38.1471V38.1552V38.1631V38.1709V38.1786V38.1861V38.1936V38.2011V38.2084V38.2156V38.2229V38.2299V38.2366V38.2434V38.2502V38.2569V38.2634V38.2696V38.2759V38.2821V38.2882V38.2941V38.3001V38.3059V38.3116V38.3171V38.3224V38.3279V38.3331V38.3381V38.3431V38.3482V38.3529V38.3577V38.3622V38.3666V38.3711V38.3754V38.3794V38.3834V38.3874V38.3911V38.3949V38.3984V38.4019V38.4054V38.4086V38.4117V38.4146V38.4176V38.4204V38.4231V38.4257V38.4304V38.4346V38.4386V38.4419V38.4449V38.4481V38.4511C40 39.8319 38.8807 40.9521 37.5 40.9521C36.1193 40.9521 35 39.8329 35 38.4521V38.4492V38.4462V38.4434V38.4404V38.4366V38.4327V38.4282V38.4231V38.4204V38.4176V38.4146V38.4117V38.4086V38.4054V38.4019V38.3984V38.3949V38.3911V38.3874V38.3834V38.3794V38.3754V38.3711V38.3666V38.3622V38.3577V38.3529V38.3482V38.3431V38.3381V38.3331V38.3279V38.3224V38.3171V38.3116V38.3059V38.3001V38.2941V38.2882V38.2821V38.2759V38.2696V38.2634V38.2569V38.2502V38.2434V38.2366V38.2299V38.2229V38.2156V38.2084V38.2011V38.1936V38.1861V38.1786V38.1709V38.1631V38.1552V38.1471V38.1391V38.1309V38.1227V38.1141V38.1057V38.0971V38.0884V38.0796V38.0706V38.0616V38.0527V38.0434V38.0341V38.0249V38.0154V38.0059V37.9964V37.9866V37.9766V37.9669V37.9569V37.9466V37.9366V37.9264V37.9159V37.9054V37.8949V37.8844V37.8736V37.8629V37.8519V37.8409V37.8299V37.8186V37.8074V37.7962V37.7846V37.7731V37.7617V37.7499V37.7381V37.7264V37.7144V37.7024V37.6904V37.6781V37.6659V37.6536V37.6411V37.6287V37.6161V37.6034V37.5906V37.5779V37.5649V37.5519V37.5389V37.5257V37.5124V37.4991V37.4856V37.4724V37.4586V37.4451V37.4314V37.4176V37.4039V37.3899V37.3759V37.3619V37.3476V37.3334V37.3191V37.3049V37.2904V37.2759V37.2614V37.2466V37.2319V37.2171V37.2021V37.1874V37.1724V37.1572V37.1421V37.1269V37.1116V37.0961V37.0807V37.0651V37.0496V37.0341V37.0184V37.0026V36.9866V36.9709V36.9549V36.9389V36.9226V36.9066V36.8904V36.8741V36.8576V36.8414V36.8249V36.8084V36.7916V36.7749V36.7581V36.7414V36.7246V36.7076V36.6907V36.6737V36.6566V36.6394V36.6221V36.6049V36.5876V36.5701V36.5527V36.5351V36.5176V36.5001V36.4824V36.4646V36.4469V36.4291V36.4111V36.3931V36.3752V36.3572V36.3389V36.3209V36.3026V36.2844V36.2659V36.2477V36.2291V36.2106V36.1922V36.1736V36.1549V36.1362V36.1174V36.0986V36.0799V36.0609V36.0421V36.0231V36.0041V35.9849V35.9659V35.9466V35.9274V35.9081V35.8889V35.8694V35.8501V35.8306V35.8111V35.7916V35.7721V35.7524V35.7326V35.7132V35.6934V35.6734V35.6536V35.6339V35.6139V35.5939V35.5739V35.5539V35.5339V35.5136V35.4936V35.4734V35.4531V35.4329V35.4126V35.3921V35.3719V35.3514V35.3309V35.3104V35.2899V35.2694V35.2486V35.2281V35.2074V35.1866V35.1659V35.1451V35.1244V35.1036V35.0826V35.0619V35.0409V35.0199V34.9989V34.9779V34.9569V34.9356V34.9146V34.8934V34.8724V34.8511V34.8299V34.8086V34.7874V34.7659V34.7446V34.7234V34.7019V34.6804V34.6589V34.6376V34.6161V34.5946V34.5729V34.5514V34.5299V34.5081V34.4866V34.4649V34.4431V34.4214V34.3996V34.3779V34.3561V34.3344V34.3126V34.2909V34.2689V34.2471V34.2252V34.2034V34.1814V34.1594V34.1374V34.1154V34.0934V34.0714V34.0494V34.0274V34.0054V33.9832V33.9611V33.9389V33.9169V33.8946V33.8726V33.8504V33.8281V33.8061V33.7839V33.7617V33.7394V33.7171V33.6949V33.6726V33.6504V33.6282V33.6059V33.5836V33.5611V33.5389V33.5166V33.4944V33.4719V33.4496V33.4271V33.4049V33.3826V33.3601V33.3379V33.3154V33.2929V33.2706V33.2481V33.2259V33.2034V33.1811V33.1586V33.1361V33.1139V33.0914V33.0689V33.0466V33.0241V33.0016V32.9791V32.9569V32.9344V32.9119V32.8896V32.8671V32.8446V32.8224V32.7999V32.7776V32.7551V32.7326V32.7104V32.6879V32.6656V32.6431V32.6206V32.5984V32.5761V32.5536V32.5314V32.5089V32.4866V32.4644V32.4419V32.4196V32.3974V32.3751V32.3526V32.3304V32.3081V32.2859V32.2636V32.2414V32.2191V32.1969V32.1749V32.1526V32.1304V32.1082V32.0861V32.0639V32.0419V32.0196V31.9976V31.9754V31.9534V31.9314V31.9094V31.8874V31.8654V31.8434V31.8214V31.7994V31.7774V31.7556V31.7336V31.7119V31.6899V31.6681V31.6461V31.6244V31.6026V31.5809V31.5591V31.5374V31.5156V31.4941V31.4724V31.4509V31.4291V31.4076V31.3861V31.3646V31.3429V31.3216V31.3001V31.2786V31.2571V31.2359V31.2144V31.1931V31.1719V31.1506V31.1294V31.1081V31.0869V31.0659V31.0446V31.0236V31.0024V30.9814V30.9604V30.9394V30.9186V30.8976V30.8766V30.8559V30.8351V30.8141V30.7934V30.7729V30.7521V30.7314V30.7109V30.6904V30.6696V30.6491V30.6286V30.6084V30.5879V30.5676V30.5471V30.5269V30.5066V30.4864V30.4664V30.4461V30.4261V30.4059V30.3859V30.3659V30.3461V30.3261V30.3064V30.2866V30.2666V30.2472V30.2274V30.2076V30.1881V30.1686V30.1491V30.1296V30.1101V30.0909V30.0714V30.0521V30.0329V30.0136V29.9946V29.9754V29.9564V29.9374V29.9184V29.8997V29.8806C35 27.9601 33.3515 25.9521 31.25 25.9521C29.9398 25.9521 28.4935 26.6644 27.5 28.3599V28.3666V28.3924V28.4181V28.4439V28.4699V28.4956V28.5216V28.5476V28.5739V28.5999V28.6259V28.6521V28.6784V28.7046V28.7309V28.7571V28.7836V28.8101V28.8364V28.8629V28.8894V28.9159V28.9426V28.9692V28.9959V29.0226V29.0491V29.0761V29.1029V29.1296V29.1564V29.1834V29.2104V29.2371V29.2641V29.2911V29.3181V29.3454V29.3724V29.3996V29.4266V29.4539V29.4811V29.5084V29.5356V29.5629V29.5901V29.6176V29.6449V29.6724V29.6996V29.7271V29.7546V29.7821V29.8096V29.8371V29.8646V29.8924V29.9199V29.9474V29.9751V30.0029V30.0304V30.0581V30.0859V30.1136V30.1414V30.1691V30.1969V30.2246V30.2526V30.2804V30.3081V30.3361V30.3639V30.3919V30.4199V30.4476V30.4756V30.5036V30.5317V30.5594V30.5874V30.6154V30.6434V30.6716V30.6996V30.7276V30.7556V30.7836V30.8116V30.8399V30.8679V30.8959V30.9241V30.9521V30.9804V31.0084V31.0366V31.0646V31.0926V31.1209V31.1491V31.1771V31.2054V31.2334V31.2617V31.2896V31.3179V31.3461V31.3741V31.4024V31.4304V31.4586V31.4869V31.5149V31.5431V31.5711V31.5994V31.6274V31.6556V31.6836V31.7119V31.7399V31.7681V31.7961V31.8244V31.8524V31.8806V31.9086V31.9366V31.9646V31.9929V32.0209V32.0489V32.0769V32.1049V32.1329V32.1609V32.1889V32.2169V32.2449V32.2729V32.3009V32.3286V32.3566V32.3846V32.4124V32.4404V32.4681V32.4961V32.5239V32.5516V32.5794V32.6071V32.6351V32.6629V32.6904V32.7181V32.7459V32.7736V32.8011V32.8289V32.8564V32.8841V32.9116V32.9391V32.9666V32.9941V33.0216V33.0491V33.0766V33.1039V33.1314V33.1586V33.1861V33.2134V33.2406V33.2679V33.2951V33.3224V33.3494V33.3766V33.4036V33.4309V33.4579V33.4849V33.5119V33.5389V33.5659V33.5926V33.6196V33.6464V33.6731V33.6999V33.7267V33.7534V33.7801V33.8069V33.8334V33.8599V33.8864V33.9129V33.9394V33.9659V33.9924V34.0186V34.0449V34.0711V34.0974V34.1236V34.1499V34.1759V34.2019V34.2281V34.2541V34.2799V34.3059V34.3319V34.3576V34.3834V34.4091V34.4349V34.4604V34.4861V34.5117V34.5371V34.5626V34.5882V34.6134V34.6389V34.6642V34.6894V34.7144V34.7397V34.7646V34.7896V34.8146V34.8396V34.8646V34.8894V34.9141V34.9389V34.9636V34.9881V35.0129V35.0374V35.0619V35.0861V35.1106V35.1349V35.1591V35.1834V35.2074V35.2316V35.2556V35.2796V35.3034V35.3274V35.3511V35.3749V35.3986V35.4221V35.4456V35.4691V35.4926V35.5161V35.5394V35.5626V35.5856V35.6089V35.6319V35.6549V35.6779V35.7006V35.7236V35.7464V35.7689V35.7916V35.8141V35.8366V35.8589V35.8814V35.9036V35.9259V35.9479V35.9699V35.9919V36.0139V36.0356V36.0574V36.0791V36.1009V36.1224V36.1439V36.1654V36.1866V36.2079V36.2291V36.2504V36.2714V36.2924V36.3131V36.3339V36.3546V36.3754V36.3961V36.4166V36.4369V36.4574V36.4776V36.4979V36.5179V36.5379V36.5579V36.5779V36.5976V36.6174V36.6369V36.6564V36.6759V36.6954V36.7146V36.7339V36.7529V36.7721V36.7911V36.8099V36.8286V36.8474V36.8661V36.8846V36.9029V36.9214V36.9397V36.9579V36.9759V36.9939V37.0119V37.0296V37.0474V37.0649V37.0826V37.0999V37.1174V37.1346V37.1519V37.1689V37.1859V37.2026V37.2197V37.2364V37.2529V37.2694V37.2859V37.3022V37.3184V37.3344V37.3504V37.3664V37.3824V37.3979V37.4137V37.4291V37.4446V37.4599V37.4751V37.4904V37.5054V37.5201V37.5351V37.5499V37.5644V37.5789V37.5934V37.6077V37.6219V37.6359V37.6499V37.6639V37.6777V37.6912V37.7049V37.7181V37.7316V37.7449V37.7579V37.7709V37.7839V37.7966V37.8094V37.8219V37.8344V37.8466V37.8589V37.8711V37.8831V37.8951V37.9069V37.9184V37.9301V37.9414V37.9529V37.9641V37.9752V37.9861V37.9969V38.0077V38.0184V38.0289V38.0392V38.0497V38.0597V38.0696V38.0796V38.0894V38.0992V38.1087V38.1181V38.1274V38.1367V38.1456V38.1546V38.1634V38.1721V38.1806V38.1891V38.1974V38.2056V38.2136V38.2216V38.2294V38.2371V38.2446V38.2521V38.2594V38.2666V38.2737V38.2804V38.2874V38.2939V38.3004V38.3069V38.3131V38.3191V38.3251V38.3311V38.3369V38.3424V38.3479V38.3531V38.3584V38.3634V38.3684V38.3731V38.3779V38.3824V38.3867V38.3909V38.3949V38.3989V38.4029V38.4064V38.4099V38.4134V38.4166V38.4199V38.4229V38.4257V38.4284V38.4309V38.4356V38.4397V38.4431V38.4462V38.4494V38.4519C27.5 39.8326 26.3808 40.9521 25 40.9521C23.6192 40.9521 22.5 39.8329 22.5 38.4521V38.4494V38.4462V38.4431V38.4397V38.4356V38.4309V38.4284V38.4257V38.4229V38.4199V38.4166V38.4134V38.4099V38.4064V38.4029V38.3989V38.3949V38.3909V38.3867V38.3824V38.3779V38.3731V38.3684V38.3634V38.3584V38.3531V38.3479V38.3424V38.3369V38.3311V38.3251V38.3191V38.3131V38.3069V38.3004V38.2939V38.2874V38.2804V38.2737V38.2666V38.2594V38.2521V38.2446V38.2371V38.2294V38.2216V38.2136V38.2056V38.1974V38.1891V38.1806V38.1721V38.1634V38.1546V38.1456V38.1367V38.1274V38.1181V38.1087V38.0992V38.0894V38.0796V38.0696V38.0597V38.0497V38.0392V38.0289V38.0184V38.0077V37.9969V37.9861V37.9752V37.9641V37.9529V37.9414V37.9301V37.9184V37.9069V37.8951V37.8831V37.8711V37.8589V37.8466V37.8344V37.8219V37.8094V37.7966V37.7839V37.7709V37.7579V37.7449V37.7316V37.7181V37.7049V37.6912V37.6777V37.6639V37.6499V37.6359V37.6219V37.6077V37.5934V37.5789V37.5644V37.5499V37.5351V37.5201V37.5054V37.4904V37.4751V37.4599V37.4446V37.4291V37.4137V37.3979V37.3824V37.3664V37.3504V37.3344V37.3184V37.3022V37.2859V37.2694V37.2529V37.2364V37.2197V37.2026V37.1859V37.1689V37.1519V37.1346V37.1174V37.0999V37.0826V37.0649V37.0474V37.0296V37.0119V36.9939V36.9759V36.9579V36.9397V36.9214V36.9029V36.8846V36.8661V36.8474V36.8286V36.8099V36.7911V36.7721V36.7529V36.7339V36.7146V36.6954V36.6759V36.6564V36.6369V36.6174V36.5976V36.5779V36.5579V36.5379V36.5179V36.4979V36.4776V36.4574V36.4369V36.4166V36.3961V36.3754V36.3546V36.3339V36.3131V36.2924V36.2714V36.2504V36.2291V36.2079V36.1866V36.1654V36.1439V36.1224V36.1009V36.0791V36.0574V36.0356V36.0139V35.9919V35.9699V35.9479V35.9259V35.9036V35.8814V35.8589V35.8366V35.8141V35.7916V35.7689V35.7464V35.7236V35.7006V35.6779V35.6549V35.6319V35.6089V35.5856V35.5626V35.5394V35.5161V35.4926V35.4691V35.4456V35.4221V35.3986V35.3749V35.3511V35.3274V35.3034V35.2796V35.2556V35.2316V35.2074V35.1834V35.1591V35.1349V35.1106V35.0861V35.0619V35.0374V35.0129V34.9881V34.9636V34.9389V34.9141V34.8894V34.8646V34.8396V34.8146V34.7896V34.7646V34.7397V34.7144V34.6894V34.6642V34.6389V34.6134V34.5882V34.5626V34.5371V34.5117V34.4861V34.4604V34.4349V34.4091V34.3834V34.3576V34.3319V34.3059V34.2799V34.2541V34.2281V34.2019V34.1759V34.1499V34.1236V34.0974V34.0711V34.0449V34.0186V33.9924V33.9659V33.9394V33.9129V33.8864V33.8599V33.8334V33.8069V33.7801V33.7534V33.7267V33.6999V33.6731V33.6464V33.6196V33.5926V33.5659V33.5389V33.5119V33.4849V33.4579V33.4309V33.4036V33.3766V33.3494V33.3224V33.2951V33.2679V33.2406V33.2134V33.1861V33.1586V33.1314V33.1039V33.0766V33.0491V33.0216V32.9941V32.9666V32.9391V32.9116V32.8841V32.8564V32.8289V32.8011V32.7736V32.7459V32.7181V32.6904V32.6629V32.6351V32.6071V32.5794V32.5516V32.5239V32.4961V32.4681V32.4404V32.4124V32.3846V32.3566V32.3286V32.3009V32.2729V32.2449V32.2169V32.1889V32.1609V32.1329V32.1049V32.0769V32.0489V32.0209V31.9929V31.9646V31.9366V31.9086V31.8806V31.8524V31.8244V31.7961V31.7681V31.7399V31.7119V31.6836V31.6556V31.6274V31.5994V31.5711V31.5431V31.5149V31.4869V31.4586V31.4304V31.4024V31.3741V31.3461V31.3179V31.2896V31.2617V31.2334V31.2054V31.1771V31.1491V31.1209V31.0926V31.0646V31.0366V31.0084V30.9804V30.9521V30.9241V30.8959V30.8679V30.8399V30.8116V30.7836V30.7556V30.7276V30.6996V30.6716V30.6434V30.6154V30.5874V30.5594V30.5317V30.5036V30.4756V30.4476V30.4199V30.3919V30.3639V30.3361V30.3081V30.2804V30.2526V30.2246V30.1969V30.1691V30.1414V30.1136V30.0859V30.0581V30.0304V30.0029V29.9751V29.9474V29.9199V29.8924V29.8646V29.8371V29.8096V29.7821V29.7546V29.7271V29.6996V29.6724V29.6449V29.6176V29.5901V29.5629V29.5356V29.5084V29.4811V29.4539V29.4266V29.3996V29.3724V29.3454V29.3181V29.2911V29.2641V29.2371V29.2104V29.1834V29.1564V29.1296V29.1029V29.0761V29.0491V29.0226V28.9959V28.9692V28.9426V28.9159V28.8894V28.8629V28.8364V28.8101V28.7836V28.7571V28.7309V28.7046V28.6784V28.6521V28.6259V28.5999V28.5739V28.5476V28.5216V28.4956V28.4699V28.4439V28.4181V28.3924V28.3666V28.3409V28.3151V28.2894V28.2639V28.2384V28.2129V28.1874V28.1621V28.1367V28.1114V28.0861V28.0609V28.0359V28.0106V27.9856V27.9606V27.9356V27.9106V27.8859V27.8611V27.8364V27.8116V27.7869V27.7624V27.7379V27.7281V27.7181V27.7084V27.6984V27.6886V27.6786V27.6686V27.6586V27.6486V27.6386V27.6286V27.6186V27.6086V27.5986V27.5884V27.5784V27.5681V27.5579V27.5479V27.5376V27.5274V27.5171V27.5069V27.4966V27.4864V27.4761V27.4659V27.4554V27.4451V27.4347V27.4244V27.4139V27.4034V27.3931V27.3826V27.3721V27.3616V27.3511V27.3406V27.3301V27.3196V27.3089V27.2984V27.2879V27.2771V27.2666V27.2559V27.2454V27.2346V27.2239V27.2134V27.2026V27.1919V27.1811V27.1704V27.1596V27.1489V27.1381V27.1274V27.1164V27.1056V27.0949V27.0841V27.0731V27.0624V27.0514V27.0406V27.0296V27.0187V27.0079V26.9969V26.9859V26.9751V26.9641V26.9531V26.9421V26.9311V26.9201V26.9091V26.8981V26.8871V26.8761V26.8651V26.8539V26.8429V26.8319V26.8209V26.8097V26.7986V26.7876V26.7764V26.7654V26.7541V26.7431V26.7319V26.7209V26.7097V26.6986V26.6874V26.6761V26.6651V26.6539V26.6426V26.6316V26.6204V26.6091V26.5979V26.5869V26.5756V26.5644V26.5532V26.5419V26.5306V26.5196V26.5084V26.4972V26.4859V26.4746V26.4634V26.4521V26.4409V26.4296V26.4184V26.4071V26.3959V26.3846V26.3734V26.3621V26.3509V26.3396V26.3284V26.3171V26.3059V26.2946V26.2834V26.2721V26.2609V26.2496V26.2384V26.2271V26.2159V26.2044V26.1931V26.1819V26.1707V26.1594V26.1481V26.1369V26.1256V26.1144V26.1031V26.0921V26.0809V26.0696V26.0584V26.0471V26.0359V26.0246V26.0134V26.0021V25.9909V25.9799V25.9686V25.9574V25.9461V25.9352V25.9239V25.9126V25.9014V25.8904V25.8792V25.8679V25.8569V25.8456V25.8346V25.8234V25.8124V25.8011V25.7901V25.7789V25.7679V25.7569V25.7456V25.7346V25.7236V25.7124V25.7014V25.6904V25.6794V25.6684V25.6574V25.6464V25.6354V25.6244V25.6134V25.6024V25.5914V25.5804V25.5696V25.5586V25.5476V25.5366V25.5259V25.5149V25.5041V25.4931V25.4824V25.4714V25.4606V25.4499V25.4391V25.4281V25.4174V25.4066V25.3959V25.3851V25.3744V25.3636V25.3529V25.3424V25.3316V25.3209V25.3104V25.2996V25.2889V25.2784V25.2679V25.2571V25.2466V25.2361V25.2256V25.2151V25.2044V25.1939V25.1836V25.1731V25.1626V25.1521V25.1419V25.1314V25.1209V25.1106V25.1004V25.0899V25.0796V25.0694V25.0591V25.0489V25.0386V25.0284V25.0181V25.0079V24.9979V24.9876V24.9774V24.9674V24.9574V24.9471V24.9371V24.9271V24.9171V24.9071V24.8971V24.8871V24.8771V24.8674V24.8574V24.8476V24.8376V24.8279V24.8181V24.8081V24.7984V24.7886V24.7791V24.7694V24.7596V24.7499V24.7404V24.7306V24.7211V24.7116V24.7021V24.6926V24.6831V24.6736V24.6642V24.6546V24.6454V24.6359V24.6266V24.6174V24.6079V24.5986V24.5894V24.5801V24.5711V24.5619V24.5526V24.5436V24.5344V24.5254V24.5164V24.5074V24.4984V24.4894V24.4804V24.4716V24.4626V24.4539V24.4449V24.4361V24.4274V24.4186V24.4099V24.4014V24.3926V24.3841V24.3754V24.3669V24.3584V24.3499V24.3414V24.3329V24.3244V24.3161V24.3076V24.2994V24.2911V24.2829V24.2747V24.2664V24.2581V24.2501V24.2419V24.2339V24.2259V24.2179V24.2099V24.2019V24.1939V24.1861V24.1781V24.1704V24.1626V24.1549V24.1471V24.1394V24.1319V24.1241V24.1166V24.1091V24.1016V24.0941V24.0866V24.0791V24.0719V24.0644V24.0571V24.0499V24.0426V24.0354V24.0284V24.0211V24.0141V24.0069V23.9999V23.9929V23.9861V23.9791V23.9724V23.9654V23.9586V23.9519V23.9451V23.9384V23.9319V23.9251V23.9186V23.9121V23.9056V23.8991V23.8929V23.8864V23.8801V23.8739V23.8676V23.8614V23.8551V23.8491V23.8429V23.8369V23.8309V23.8249V23.8189V23.8131V23.8071V23.8014V23.7956V23.7899V23.7844V23.7786V23.7731V23.7674V23.7619V23.7564V23.7511V23.7456V23.7404V23.7351V23.7299V23.7246V23.7194V23.7144V23.7091V23.7041V23.6991V23.6944V23.6894V23.6847V23.6796V23.6749V23.6704V23.6656V23.6609V23.6564V23.6519V23.6474V23.6429V23.6386V23.6341V23.6299V23.6256V23.6214V23.6174V23.6131V23.6091V23.6051V23.6011V23.5971V23.5934V23.5896V23.5859V23.5821V23.5784V23.5746V23.5711V23.5676V23.5641V23.5606V23.5574V23.5541V23.5506V23.5476V23.5444V23.5411V23.5381V23.5351V23.5321V23.5291V23.5264V23.5236V23.5209V23.5181V23.5154V23.5129V23.5101V23.5076V23.5029V23.4984V23.4939V23.4896V23.4856V23.4819V23.4784V23.4749V23.4719V23.4689V23.4651V23.4626V23.4596V23.4571V23.4541C22.5 22.0734 23.6192 20.9521 25 20.9521Z" fill="#9974FC"/>
</svg>
