<svg width="324" height="89" viewBox="0 0 324 89" fill="none" xmlns="http://www.w3.org/2000/svg">
<path d="M48.4256 42.1418L46.3583 45.6044C46.2983 45.7159 46.2383 45.829 46.1784 45.9421L46.1134 45.9372H45.9335C38.382 45.9146 34.8537 44.4523 33.9874 42.2824C37.3292 34.9776 38.2154 29.1707 34.4839 27.1785C31.1521 23.7854 19.3577 25.9828 10.6617 28.7942C21.2767 21.3343 29.5445 17.7312 35.8049 16.7246C43.7562 15.4433 48.4706 18.3533 50.6479 22.8741C53.3367 28.4581 52.1556 36.4981 48.4256 42.1418Z" fill="url(#paint0_linear_604_30084)"/>
<path d="M40.5076 55.836C32.2015 66.2656 18.0049 77.8408 0 88.9522C7.30156 82.8689 20.7053 66.8376 29.0063 52.8711C32.0333 53.9375 35.8265 54.8908 40.331 55.8004C40.3893 55.8117 40.4476 55.8247 40.5076 55.836Z" fill="url(#paint1_linear_604_30084)"/>
<path d="M60.3067 0C57.493 8.47457 49.9349 3.2234 47.6376 7.26114C47.6126 7.22075 47.5893 7.18036 47.5677 7.13996L47.541 7.20298C46.6864 5.32387 47.1245 3.54655 49.2269 1.76924C51.2259 0.778787 52.1222 0.961366 52.1838 0.940362C52.2338 0.924204 54.9808 0.61075 56.3035 0.465334C56.3069 0.463718 56.3102 0.463718 56.3135 0.463718C57.5596 0.243977 58.899 0.0872501 60.3067 0Z" fill="#0FDAFE"/>
<path opacity="0.45" d="M55.9471 16.7944C55.9354 16.809 55.9237 16.8251 55.9121 16.8397C55.8704 16.8671 55.8271 16.8946 55.7855 16.9221C55.8404 16.8801 55.8937 16.8381 55.9471 16.7944Z" fill="#F2F1FC"/>
<path d="M58.3343 12.4709C58.291 12.6518 58.2377 12.8296 58.176 13.0024C57.653 14.0979 56.8883 15.0609 55.9471 15.8268C55.8938 15.8704 55.8405 15.9124 55.7855 15.9544C55.7838 15.9544 55.7822 15.956 55.7805 15.9576C54.3478 17.0677 52.5337 17.7285 50.5596 17.7285C49.6917 17.7285 48.8538 17.6008 48.0658 17.3633C46.3883 16.3567 45.2704 14.5568 45.2704 12.5032C45.2704 12.4418 45.2721 12.3804 45.2738 12.319C45.2754 12.2689 45.2771 12.2172 45.2804 12.1655C45.2821 12.1526 45.2821 12.1396 45.2838 12.1267C45.2871 12.0782 45.2904 12.0282 45.2954 11.9797C45.2954 11.9651 45.2971 11.9522 45.2988 11.9393C45.3038 11.8973 45.3071 11.8569 45.3121 11.8165C45.3154 11.7906 45.3188 11.7664 45.3221 11.7422C45.3288 11.6937 45.3354 11.6468 45.3437 11.6C45.3521 11.545 45.3621 11.4901 45.3737 11.4352C45.3737 11.4303 45.3754 11.4271 45.3754 11.4239C45.3971 11.314 45.422 11.2074 45.4504 11.1007C45.472 11.0119 45.4987 10.923 45.527 10.8357C45.542 10.7824 45.5603 10.7291 45.5786 10.6774C45.6003 10.6144 45.6236 10.5498 45.6486 10.4884C45.6736 10.4253 45.6986 10.3623 45.7252 10.3009C45.7519 10.2395 45.7802 10.1797 45.8085 10.1183C45.8368 10.0586 45.8668 9.99878 45.8968 9.94062C45.8985 9.94062 45.8985 9.939 45.8985 9.939C45.9285 9.87922 45.9618 9.82105 45.9934 9.76288C46.0268 9.70472 46.0601 9.64817 46.0951 9.59C46.13 9.53345 46.1667 9.4769 46.2033 9.42196C46.2433 9.36056 46.285 9.29917 46.3283 9.23938C46.3733 9.17637 46.4199 9.11336 46.4682 9.05196C46.5132 8.99541 46.5582 8.93886 46.6048 8.88392C46.6381 8.84353 46.6715 8.80475 46.7081 8.76597C46.7348 8.73366 46.7647 8.70134 46.7947 8.67064C46.8347 8.6254 46.8764 8.58178 46.9197 8.53977C46.968 8.48968 47.018 8.44121 47.0696 8.39435C47.1062 8.3588 47.1446 8.32487 47.1829 8.29256C47.2195 8.25701 47.2578 8.2247 47.2978 8.19238C47.3411 8.15361 47.3845 8.11806 47.4294 8.08251C47.4294 8.0809 47.4311 8.0809 47.4311 8.0809C47.4877 8.03566 47.546 7.99042 47.606 7.94841C47.631 7.92902 47.6577 7.91124 47.6826 7.89347C47.711 7.87247 47.7393 7.85146 47.7693 7.83207C47.7709 7.83046 47.7743 7.82884 47.7776 7.82723C47.8026 7.80945 47.8292 7.79168 47.8559 7.77391C47.9092 7.73998 47.9625 7.70605 48.0175 7.67373C48.0192 7.67211 48.0225 7.6705 48.0258 7.66888C48.1624 7.59779 48.3107 7.54447 48.4673 7.51216L48.7771 7.47176L52.6336 6.97411L56.0737 6.52979C56.132 6.57179 56.1903 6.6138 56.247 6.65743C55.9604 7.34897 55.6922 7.97264 55.3857 8.52846C54.2862 10.5191 52.7019 11.6436 48.1124 11.9393C47.6843 12.0605 47.2245 12.1542 46.8597 12.3545C46.4116 12.6017 46.11 13.0121 46.2 13.8378L47.4261 13.7004L57.0449 12.6163L58.2094 12.4854L58.2543 12.4806L58.3343 12.4709Z" fill="url(#paint2_linear_604_30084)"/>
<path d="M46.5615 78.7867C53.6715 72.7777 71.8296 58.6141 46.6748 55.5442C44.4508 55.1629 42.3568 54.7784 40.3961 54.3857C40.3361 54.3744 40.2778 54.3615 40.2195 54.3502C35.7149 53.4405 31.9217 52.4872 28.8948 51.4209C28.8282 51.3982 28.7632 51.374 28.6982 51.3514C17.8883 47.4881 17.0704 42.1546 28.7932 32.2775C30.3941 30.9284 32.0367 29.6875 33.7009 28.5581C36.0664 30.0834 36.2947 33.3633 35.0802 37.658C33.4926 39.5904 32.6864 41.442 33.0978 42.977C33.1278 43.0901 33.1645 43.2 33.2094 43.3082C34.0757 45.4781 37.604 46.9404 45.1555 46.963H45.3354L45.4004 46.9679C94.1741 50.2866 51.8923 75.2579 46.5615 78.7867Z" fill="url(#paint3_linear_604_30084)"/>
<path d="M51.8141 23.1305C51.4043 22.2612 50.8995 21.4501 50.2964 20.7166C60.6866 17.7743 69.3691 19.8198 70.6285 27.7095C73.169 36.937 62.1342 49.3556 54.0597 34.6927C64.1433 37.6948 71.0483 20.8168 52.9019 25.9694C52.8669 25.9839 52.8336 26 52.7986 26.0162C52.567 25.0031 52.2422 24.0353 51.8141 23.1305Z" fill="url(#paint4_linear_604_30084)"/>
<path d="M111.352 62.0521C108.664 62.0521 106.088 61.7001 103.624 60.9961C101.16 60.2601 99.1761 59.3161 97.6721 58.1641L100.312 52.3081C101.752 53.3321 103.448 54.1801 105.4 54.8521C107.384 55.4921 109.384 55.8121 111.4 55.8121C112.936 55.8121 114.168 55.6681 115.096 55.3801C116.056 55.0601 116.76 54.6281 117.208 54.0841C117.656 53.5401 117.88 52.9161 117.88 52.2121C117.88 51.3161 117.528 50.6121 116.824 50.1001C116.12 49.5561 115.192 49.1241 114.04 48.8041C112.888 48.4521 111.608 48.1321 110.2 47.8441C108.824 47.5241 107.432 47.1401 106.024 46.6921C104.648 46.2441 103.384 45.6681 102.232 44.9641C101.08 44.2601 100.136 43.3321 99.4001 42.1801C98.6961 41.0281 98.3441 39.5561 98.3441 37.7641C98.3441 35.8441 98.8561 34.1001 99.8801 32.5321C100.936 30.9321 102.504 29.6681 104.584 28.7401C106.696 27.7801 109.336 27.3001 112.504 27.3001C114.616 27.3001 116.696 27.5561 118.744 28.0681C120.792 28.5481 122.6 29.2841 124.168 30.2761L121.768 36.1801C120.2 35.2841 118.632 34.6281 117.064 34.2121C115.496 33.7641 113.96 33.5401 112.456 33.5401C110.952 33.5401 109.72 33.7161 108.76 34.0681C107.8 34.4201 107.112 34.8841 106.696 35.4601C106.28 36.0041 106.072 36.6441 106.072 37.3801C106.072 38.2441 106.424 38.9481 107.128 39.4921C107.832 40.0041 108.76 40.4201 109.912 40.7401C111.064 41.0601 112.328 41.3801 113.704 41.7001C115.112 42.0201 116.504 42.3881 117.88 42.8041C119.288 43.2201 120.568 43.7801 121.72 44.4841C122.872 45.1881 123.8 46.1161 124.504 47.2681C125.24 48.4201 125.608 49.8761 125.608 51.6361C125.608 53.5241 125.08 55.2521 124.024 56.8201C122.968 58.3881 121.384 59.6521 119.272 60.6121C117.192 61.5721 114.552 62.0521 111.352 62.0521ZM138.073 41.4121H154.249V47.4601H138.073V41.4121ZM138.649 55.2361H156.937V61.4761H130.921V27.8761H156.313V34.1161H138.649V55.2361ZM179.205 62.0521C176.613 62.0521 174.197 61.6361 171.957 60.8041C169.749 59.9401 167.829 58.7241 166.197 57.1561C164.565 55.5881 163.285 53.7481 162.357 51.6361C161.461 49.5241 161.013 47.2041 161.013 44.6761C161.013 42.1481 161.461 39.8281 162.357 37.7161C163.285 35.6041 164.565 33.7641 166.197 32.1961C167.861 30.6281 169.797 29.4281 172.005 28.5961C174.213 27.7321 176.629 27.3001 179.253 27.3001C182.165 27.3001 184.789 27.8121 187.125 28.8361C189.493 29.8281 191.477 31.3001 193.077 33.2521L188.085 37.8601C186.933 36.5481 185.653 35.5721 184.245 34.9321C182.837 34.2601 181.301 33.9241 179.637 33.9241C178.069 33.9241 176.629 34.1801 175.317 34.6921C174.005 35.2041 172.869 35.9401 171.909 36.9001C170.949 37.8601 170.197 38.9961 169.653 40.3081C169.141 41.6201 168.885 43.0761 168.885 44.6761C168.885 46.2761 169.141 47.7321 169.653 49.0441C170.197 50.3561 170.949 51.4921 171.909 52.4521C172.869 53.4121 174.005 54.1481 175.317 54.6601C176.629 55.1721 178.069 55.4281 179.637 55.4281C181.301 55.4281 182.837 55.1081 184.245 54.4681C185.653 53.7961 186.933 52.7881 188.085 51.4441L193.077 56.0521C191.477 58.0041 189.493 59.4921 187.125 60.5161C184.789 61.5401 182.149 62.0521 179.205 62.0521ZM228.001 62.0521C225.409 62.0521 222.993 61.6361 220.753 60.8041C218.545 59.9401 216.625 58.7241 214.993 57.1561C213.361 55.5881 212.081 53.7481 211.153 51.6361C210.257 49.5241 209.809 47.2041 209.809 44.6761C209.809 42.1481 210.257 39.8281 211.153 37.7161C212.081 35.6041 213.361 33.7641 214.993 32.1961C216.657 30.6281 218.593 29.4281 220.801 28.5961C223.009 27.7321 225.425 27.3001 228.049 27.3001C230.961 27.3001 233.585 27.8121 235.921 28.8361C238.289 29.8281 240.273 31.3001 241.873 33.2521L236.881 37.8601C235.729 36.5481 234.449 35.5721 233.041 34.9321C231.633 34.2601 230.097 33.9241 228.433 33.9241C226.865 33.9241 225.425 34.1801 224.113 34.6921C222.801 35.2041 221.665 35.9401 220.705 36.9001C219.745 37.8601 218.993 38.9961 218.449 40.3081C217.937 41.6201 217.681 43.0761 217.681 44.6761C217.681 46.2761 217.937 47.7321 218.449 49.0441C218.993 50.3561 219.745 51.4921 220.705 52.4521C221.665 53.4121 222.801 54.1481 224.113 54.6601C225.425 55.1721 226.865 55.4281 228.433 55.4281C230.097 55.4281 231.633 55.1081 233.041 54.4681C234.449 53.7961 235.729 52.7881 236.881 51.4441L241.873 56.0521C240.273 58.0041 238.289 59.4921 235.921 60.5161C233.585 61.5401 230.945 62.0521 228.001 62.0521ZM246.597 61.4761V25.8601H254.085V61.4761H246.597ZM271.93 61.8601C269.786 61.8601 267.866 61.4441 266.17 60.6121C264.506 59.7801 263.21 58.5161 262.282 56.8201C261.354 55.0921 260.89 52.9001 260.89 50.2441V35.6521H268.378V49.1401C268.378 51.2841 268.826 52.8681 269.722 53.8921C270.65 54.8841 271.946 55.3801 273.61 55.3801C274.762 55.3801 275.786 55.1401 276.682 54.6601C277.578 54.1481 278.282 53.3801 278.794 52.3561C279.306 51.3001 279.562 49.9881 279.562 48.4201V35.6521H287.05V61.4761H279.946V54.3721L281.242 56.4361C280.378 58.2281 279.098 59.5881 277.402 60.5161C275.738 61.4121 273.914 61.8601 271.93 61.8601ZM309.251 61.8601C306.979 61.8601 305.027 61.3801 303.395 60.4201C301.763 59.4601 300.515 58.0041 299.651 56.0521C298.787 54.0681 298.355 51.5721 298.355 48.5641C298.355 45.5241 298.803 43.0281 299.699 41.0761C300.627 39.1241 301.907 37.6681 303.539 36.7081C305.171 35.7481 307.075 35.2681 309.251 35.2681C311.683 35.2681 313.859 35.8121 315.779 36.9001C317.731 37.9881 319.267 39.5241 320.387 41.5081C321.539 43.4921 322.115 45.8441 322.115 48.5641C322.115 51.2521 321.539 53.5881 320.387 55.5721C319.267 57.5561 317.731 59.1081 315.779 60.2281C313.859 61.3161 311.683 61.8601 309.251 61.8601ZM293.987 61.4761V25.8601H301.475V40.8841L300.995 48.5161L301.139 56.1961V61.4761H293.987ZM307.955 55.7161C309.203 55.7161 310.307 55.4281 311.267 54.8521C312.259 54.2761 313.043 53.4601 313.619 52.4041C314.227 51.3161 314.531 50.0361 314.531 48.5641C314.531 47.0601 314.227 45.7801 313.619 44.7241C313.043 43.6681 312.259 42.8521 311.267 42.2761C310.307 41.7001 309.203 41.4121 307.955 41.4121C306.707 41.4121 305.587 41.7001 304.595 42.2761C303.603 42.8521 302.819 43.6681 302.243 44.7241C301.667 45.7801 301.379 47.0601 301.379 48.5641C301.379 50.0361 301.667 51.3161 302.243 52.4041C302.819 53.4601 303.603 54.2761 304.595 54.8521C305.587 55.4281 306.707 55.7161 307.955 55.7161Z" fill="url(#paint5_linear_604_30084)"/>
<defs>
<linearGradient id="paint0_linear_604_30084" x1="30.4688" y1="52.5885" x2="31.9716" y2="12.4141" gradientUnits="userSpaceOnUse">
<stop offset="0.0955" stop-color="#9974FC"/>
<stop offset="0.3405" stop-color="#8087FC"/>
<stop offset="0.5695" stop-color="#6D95FC"/>
<stop offset="0.6443" stop-color="#659BFC"/>
<stop offset="0.7609" stop-color="#4FABFD"/>
<stop offset="0.9039" stop-color="#2BC5FD"/>
<stop offset="1" stop-color="#0FDAFE"/>
</linearGradient>
<linearGradient id="paint1_linear_604_30084" x1="2.87156" y1="88.805" x2="41.4541" y2="44.6987" gradientUnits="userSpaceOnUse">
<stop offset="0.2872" stop-color="#C653FB"/>
<stop offset="0.553" stop-color="#A869FC"/>
<stop offset="0.7276" stop-color="#9974FC"/>
</linearGradient>
<linearGradient id="paint2_linear_604_30084" x1="45.8005" y1="23.6415" x2="51.3361" y2="12.1606" gradientUnits="userSpaceOnUse">
<stop stop-color="#6D95FC"/>
<stop offset="0.0348" stop-color="#669AFC"/>
<stop offset="0.2031" stop-color="#46B1FD"/>
<stop offset="0.379" stop-color="#2EC3FD"/>
<stop offset="0.5634" stop-color="#1DD0FE"/>
<stop offset="0.762" stop-color="#12D8FE"/>
<stop offset="1" stop-color="#0FDAFE"/>
</linearGradient>
<linearGradient id="paint3_linear_604_30084" x1="43.4499" y1="72.1879" x2="45.6861" y2="21.4646" gradientUnits="userSpaceOnUse">
<stop offset="0.1418" stop-color="#C653FB"/>
<stop offset="0.2032" stop-color="#B65EFB"/>
<stop offset="0.3097" stop-color="#A16EFC"/>
<stop offset="0.379" stop-color="#9974FC"/>
<stop offset="0.6848" stop-color="#7C8AFC"/>
<stop offset="0.8977" stop-color="#6D95FC"/>
</linearGradient>
<linearGradient id="paint4_linear_604_30084" x1="59.8999" y1="41.0208" x2="60.8272" y2="20.9294" gradientUnits="userSpaceOnUse">
<stop offset="0.2453" stop-color="#6D95FC"/>
<stop offset="0.4584" stop-color="#6A97FC"/>
<stop offset="0.6032" stop-color="#619EFC"/>
<stop offset="0.7277" stop-color="#52A9FD"/>
<stop offset="0.8406" stop-color="#3CB9FD"/>
<stop offset="0.9448" stop-color="#21CDFE"/>
<stop offset="1" stop-color="#0FDAFE"/>
</linearGradient>
<linearGradient id="paint5_linear_604_30084" x1="210" y1="6.9964" x2="210" y2="78.5818" gradientUnits="userSpaceOnUse">
<stop stop-color="#0FDAFE"/>
<stop offset="1" stop-color="#C654FB"/>
</linearGradient>
</defs>
</svg>
