<svg width="241" height="310" viewBox="0 0 241 310" fill="none" xmlns="http://www.w3.org/2000/svg">
<path d="M164.195 146.858L157.207 158.925C157.004 159.313 156.801 159.707 156.599 160.101L156.379 160.085H155.771C130.246 160.006 118.32 154.91 115.392 147.348C126.688 121.891 129.683 101.654 117.07 94.7108C105.809 82.8861 65.9425 90.544 36.5497 100.342C72.4292 74.3442 100.375 61.7875 121.536 58.2795C148.411 53.8142 164.347 63.9553 171.706 79.7103C180.794 99.1704 176.802 127.189 164.195 146.858Z" fill="url(#paint0_linear_486_8210)"/>
<path d="M137.426 194.591C109.351 230.938 61.365 271.277 0.507202 310C25.1871 288.8 70.4926 232.931 98.5509 184.258C108.782 187.975 121.603 191.297 136.829 194.467C137.026 194.506 137.223 194.551 137.426 194.591Z" fill="url(#paint1_linear_486_8210)"/>
<path d="M204.35 0C194.84 29.5336 169.293 11.2335 161.528 25.3049C161.443 25.1641 161.364 25.0233 161.291 24.8826L161.201 25.1022C158.312 18.5535 159.793 12.3596 166.899 6.16574C173.656 2.71405 176.686 3.35033 176.894 3.27713C177.063 3.22082 186.348 2.12845 190.819 1.62167C190.83 1.61604 190.842 1.61604 190.853 1.61604C195.065 0.850252 199.592 0.304064 204.35 0Z" fill="#0FDAFE"/>
<path opacity="0.45" d="M189.609 58.5358C189.57 58.5864 189.531 58.6428 189.491 58.6934C189.35 58.7892 189.204 58.8849 189.063 58.9806C189.249 58.8342 189.429 58.6878 189.609 58.5358Z" fill="#070002"/>
<path d="M197.681 43.4651C197.535 44.0958 197.355 44.7152 197.146 45.3177C195.378 49.1353 192.794 52.4913 189.612 55.1603C189.432 55.3123 189.252 55.4587 189.066 55.6051C189.061 55.6051 189.055 55.6108 189.049 55.6164C184.207 59.4848 178.075 61.7878 171.402 61.7878C168.469 61.7878 165.636 61.3429 162.973 60.5152C157.303 57.0072 153.525 50.7345 153.525 43.5777C153.525 43.3638 153.53 43.1498 153.536 42.9358C153.541 42.7613 153.547 42.5811 153.558 42.4009C153.564 42.3558 153.564 42.3108 153.57 42.2658C153.581 42.0968 153.592 41.9223 153.609 41.7533C153.609 41.7027 153.615 41.6576 153.62 41.6126C153.637 41.4662 153.648 41.3254 153.665 41.1846C153.677 41.0945 153.688 41.0101 153.699 40.9256C153.722 40.7567 153.744 40.5934 153.772 40.4301C153.8 40.2387 153.834 40.0472 153.874 39.8558C153.874 39.8389 153.879 39.8276 153.879 39.8163C153.952 39.4335 154.037 39.0618 154.133 38.6902C154.206 38.3805 154.296 38.0708 154.392 37.7667C154.442 37.5809 154.504 37.3951 154.566 37.2149C154.639 36.9953 154.718 36.7701 154.803 36.5561C154.887 36.3365 154.972 36.1169 155.062 35.9029C155.152 35.689 155.248 35.4806 155.343 35.2667C155.439 35.0583 155.54 34.85 155.642 34.6473C155.647 34.6473 155.647 34.6416 155.647 34.6416C155.749 34.4333 155.861 34.2306 155.968 34.0279C156.081 33.8252 156.194 33.6281 156.312 33.4254C156.43 33.2283 156.554 33.0312 156.678 32.8398C156.813 32.6258 156.954 32.4118 157.1 32.2035C157.252 31.9839 157.41 31.7643 157.573 31.5503C157.725 31.3532 157.877 31.1562 158.035 30.9647C158.147 30.8239 158.26 30.6888 158.384 30.5537C158.474 30.441 158.575 30.3284 158.677 30.2214C158.812 30.0638 158.953 29.9118 159.099 29.7654C159.262 29.5908 159.431 29.4219 159.606 29.2586C159.73 29.1347 159.859 29.0165 159.989 28.9038C160.113 28.78 160.242 28.6673 160.377 28.5547C160.524 28.4196 160.67 28.2957 160.822 28.1718C160.822 28.1662 160.828 28.1662 160.828 28.1662C161.019 28.0085 161.216 27.8509 161.419 27.7045C161.503 27.6369 161.593 27.575 161.678 27.513C161.774 27.4398 161.869 27.3666 161.971 27.2991C161.976 27.2934 161.988 27.2878 161.999 27.2822C162.083 27.2202 162.173 27.1583 162.264 27.0963C162.444 26.9781 162.624 26.8599 162.81 26.7472C162.815 26.7416 162.827 26.736 162.838 26.7303C163.3 26.4826 163.801 26.2968 164.33 26.1842L165.377 26.0434L178.413 24.3091L190.04 22.7606C190.237 22.907 190.435 23.0534 190.626 23.2055C189.657 25.6154 188.751 27.7889 187.715 29.7259C183.998 36.6631 178.644 40.5821 163.131 41.6126C161.684 42.0349 160.129 42.3615 158.896 43.0597C157.382 43.9212 156.362 45.3514 156.667 48.2288L160.811 47.7502L193.323 43.9719L197.259 43.5158L197.411 43.4989L197.681 43.4651Z" fill="url(#paint2_linear_486_8210)"/>
<path d="M157.894 274.559C181.926 253.618 243.302 204.258 158.277 193.56C150.76 192.231 143.682 190.891 137.054 189.523C136.852 189.483 136.655 189.438 136.458 189.399C121.232 186.229 108.41 182.906 98.1792 179.19C97.954 179.111 97.7344 179.027 97.5148 178.948C60.9765 165.485 58.2117 146.897 97.8358 112.476C103.247 107.774 108.799 103.45 114.424 99.514C122.42 104.83 123.191 116.26 119.086 131.227C113.72 137.961 110.995 144.414 112.386 149.763C112.487 150.158 112.611 150.54 112.763 150.918C115.691 158.48 127.617 163.576 153.142 163.655H153.75L153.969 163.672C318.828 175.237 175.913 262.261 157.894 274.559Z" fill="url(#paint3_linear_486_8210)"/>
<path d="M175.643 80.6168C174.258 77.5874 172.552 74.7607 170.513 72.2043C205.633 61.9506 234.98 69.0792 239.237 96.5745C247.824 128.732 210.526 172.01 183.233 120.911C217.317 131.373 240.656 72.5535 179.32 90.5101C179.202 90.5608 179.089 90.6171 178.971 90.6734C178.188 87.1429 177.09 83.77 175.643 80.6168Z" fill="url(#paint4_linear_486_8210)"/>
<defs>
<linearGradient id="paint0_linear_486_8210" x1="103.499" y1="183.264" x2="108.898" y2="43.27" gradientUnits="userSpaceOnUse">
<stop offset="0.0955" stop-color="#9974FC"/>
<stop offset="0.3405" stop-color="#8087FC"/>
<stop offset="0.5695" stop-color="#6D95FC"/>
<stop offset="0.6443" stop-color="#659BFC"/>
<stop offset="0.7609" stop-color="#4FABFD"/>
<stop offset="0.9039" stop-color="#2BC5FD"/>
<stop offset="1" stop-color="#0FDAFE"/>
</linearGradient>
<linearGradient id="paint1_linear_486_8210" x1="10.2133" y1="309.487" x2="145.158" y2="159.866" gradientUnits="userSpaceOnUse">
<stop offset="0.2872" stop-color="#C653FB"/>
<stop offset="0.553" stop-color="#A869FC"/>
<stop offset="0.7276" stop-color="#9974FC"/>
</linearGradient>
<linearGradient id="paint2_linear_486_8210" x1="155.316" y1="82.3944" x2="174.973" y2="42.8538" gradientUnits="userSpaceOnUse">
<stop stop-color="#6D95FC"/>
<stop offset="0.0348" stop-color="#669AFC"/>
<stop offset="0.2031" stop-color="#46B1FD"/>
<stop offset="0.379" stop-color="#2EC3FD"/>
<stop offset="0.5634" stop-color="#1DD0FE"/>
<stop offset="0.762" stop-color="#12D8FE"/>
<stop offset="1" stop-color="#0FDAFE"/>
</linearGradient>
<linearGradient id="paint3_linear_486_8210" x1="147.377" y1="251.563" x2="155.411" y2="74.815" gradientUnits="userSpaceOnUse">
<stop offset="0.1418" stop-color="#C653FB"/>
<stop offset="0.2032" stop-color="#B65EFB"/>
<stop offset="0.3097" stop-color="#A16EFC"/>
<stop offset="0.379" stop-color="#9974FC"/>
<stop offset="0.6848" stop-color="#7C8AFC"/>
<stop offset="0.8977" stop-color="#6D95FC"/>
</linearGradient>
<linearGradient id="paint4_linear_486_8210" x1="202.974" y1="142.964" x2="206.305" y2="72.9553" gradientUnits="userSpaceOnUse">
<stop offset="0.2453" stop-color="#6D95FC"/>
<stop offset="0.4584" stop-color="#6A97FC"/>
<stop offset="0.6032" stop-color="#619EFC"/>
<stop offset="0.7277" stop-color="#52A9FD"/>
<stop offset="0.8406" stop-color="#3CB9FD"/>
<stop offset="0.9448" stop-color="#21CDFE"/>
<stop offset="1" stop-color="#0FDAFE"/>
</linearGradient>
</defs>
</svg>
