<svg width="233" height="140" viewBox="0 0 233 140" fill="none" xmlns="http://www.w3.org/2000/svg">
<g clip-path="url(#clip0_820_32914)">
<path d="M233 109.25C233.005 110.188 232.636 111.089 231.975 111.756C231.315 112.422 230.415 112.799 229.476 112.804H74.4227C73.9575 112.802 73.4973 112.708 73.0685 112.528C72.6396 112.348 72.2504 112.086 71.9232 111.756C71.5959 111.426 71.337 111.035 71.1612 110.605C70.9854 110.175 70.8962 109.715 70.8986 109.251V3.55388C70.8937 2.61623 71.2622 1.71505 71.9231 1.04857C72.584 0.382085 73.4831 0.00490345 74.4226 0H229.476C229.941 0.002415 230.401 0.0962527 230.83 0.276154C231.259 0.456055 231.648 0.718497 231.975 1.0485C232.303 1.37849 232.562 1.76959 232.737 2.19945C232.913 2.6293 233.002 3.08951 233 3.55378V109.25Z" fill="#E6E6E6"/>
<path d="M231.171 107.52C231.171 108.431 230.808 109.305 230.162 109.95C229.517 110.594 228.641 110.956 227.728 110.956H76.2772C75.364 110.956 74.4882 110.594 73.8424 109.95C73.1967 109.305 72.8339 108.431 72.8339 107.52V5.3333C72.8339 4.42193 73.1967 3.54789 73.8424 2.90345C74.4882 2.25901 75.364 1.89697 76.2772 1.89697H227.735C228.647 1.8988 229.521 2.26165 230.165 2.90589C230.809 3.55013 231.171 4.42313 231.171 5.3333V107.52Z" fill="white"/>
<path d="M80.9283 6.3335H223.238C223.78 6.3335 224.3 6.54839 224.683 6.9309C225.067 7.31342 225.282 7.83222 225.282 8.37317V104.083C225.282 104.624 225.067 105.143 224.683 105.526C224.3 105.908 223.78 106.123 223.238 106.123H80.9283C80.3863 106.123 79.8664 105.908 79.4831 105.526C79.0999 105.143 78.8845 104.624 78.8845 104.083V8.37317C78.8845 7.83222 79.0999 7.31342 79.4831 6.9309C79.8664 6.54839 80.3863 6.3335 80.9283 6.3335Z" fill="#E6E6E6"/>
<path d="M82.7296 8.62891H221.282C221.824 8.62891 222.344 8.8438 222.727 9.22631C223.111 9.60883 223.326 10.1276 223.326 10.6686V101.272C223.326 101.813 223.111 102.331 222.727 102.714C222.344 103.096 221.824 103.311 221.282 103.311H82.7296C82.1876 103.311 81.6677 103.096 81.2844 102.714C80.9012 102.331 80.6858 101.813 80.6858 101.272V10.6686C80.6858 10.1276 80.9012 9.60883 81.2844 9.22631C81.6677 8.8438 82.1876 8.62891 82.7296 8.62891Z" fill="white"/>
<path d="M180.557 71.5692C180.012 71.5688 179.473 71.4542 178.974 71.2327C178.859 71.1813 178.748 71.1187 178.645 71.0456L168.575 63.972C168.064 63.6133 167.648 63.1373 167.36 62.5841C167.072 62.031 166.922 61.4169 166.922 60.7937V51.1468C166.922 50.5236 167.072 49.9095 167.36 49.3564C167.648 48.8032 168.064 48.3272 168.575 47.9685L178.645 40.8949C178.748 40.8219 178.859 40.7592 178.974 40.7078C179.568 40.4447 180.217 40.3336 180.864 40.3847C181.511 40.4357 182.135 40.6474 182.68 41.0003C183.224 41.3533 183.671 41.8364 183.981 42.4057C184.291 42.9751 184.453 43.6126 184.453 44.2604V67.6801C184.453 68.7113 184.042 69.7002 183.312 70.4293C182.581 71.1584 181.59 71.568 180.557 71.568L180.557 71.5692Z" fill="#3F3D56"/>
<path d="M158.022 73.4657H129.938C124.208 73.461 119.565 69.7648 119.559 65.2039V46.7364C119.565 42.1755 124.208 38.4793 129.938 38.4746H158.095C163.784 38.48 168.394 42.1496 168.401 46.6781V65.2039C168.395 69.7648 163.751 73.461 158.022 73.4657Z" fill="#3F3D56"/>
<path d="M208.049 97.485C212.662 97.485 216.401 93.7531 216.401 89.1495C216.401 84.5459 212.662 80.814 208.049 80.814C203.436 80.814 199.697 84.5459 199.697 89.1495C199.697 93.7531 203.436 97.485 208.049 97.485Z" fill="#E6E6E6"/>
<path d="M212.387 89.0003L205.729 85.1642C205.703 85.1491 205.673 85.1411 205.643 85.1411C205.613 85.1411 205.583 85.1491 205.557 85.1642C205.53 85.1794 205.508 85.2012 205.493 85.2274C205.478 85.2536 205.47 85.2834 205.47 85.3136V92.9858C205.47 93.0161 205.478 93.0459 205.493 93.0721C205.508 93.0983 205.53 93.1201 205.557 93.1353C205.583 93.1504 205.613 93.1584 205.643 93.1584C205.673 93.1584 205.703 93.1504 205.729 93.1353L212.387 89.2992C212.414 89.284 212.435 89.2622 212.451 89.236C212.466 89.2098 212.474 89.18 212.474 89.1498C212.474 89.1195 212.466 89.0897 212.451 89.0635C212.435 89.0373 212.414 89.0155 212.387 89.0003L205.729 85.1642C205.703 85.1491 205.673 85.1411 205.643 85.1411C205.613 85.1411 205.583 85.1491 205.557 85.1642C205.53 85.1794 205.508 85.2012 205.493 85.2274C205.478 85.2536 205.47 85.2834 205.47 85.3136V92.9858C205.47 93.0161 205.478 93.0459 205.493 93.0721C205.508 93.0983 205.53 93.1201 205.557 93.1353C205.583 93.1504 205.613 93.1584 205.643 93.1584C205.673 93.1584 205.703 93.1504 205.729 93.1353L212.387 89.2992C212.414 89.284 212.435 89.2622 212.451 89.236C212.466 89.2098 212.474 89.18 212.474 89.1498C212.474 89.1195 212.466 89.0897 212.451 89.0635C212.435 89.0373 212.414 89.0155 212.387 89.0003Z" fill="white"/>
<path d="M197.204 121.926C197.209 122.864 196.841 123.765 196.18 124.432C195.519 125.098 194.62 125.475 193.68 125.48H38.6271C38.1618 125.478 37.7017 125.384 37.2728 125.204C36.8439 125.024 36.4547 124.762 36.1275 124.432C35.8002 124.102 35.5413 123.711 35.3655 123.281C35.1897 122.851 35.1005 122.391 35.1029 121.926V16.2297C35.098 15.292 35.4665 14.3908 36.1274 13.7243C36.7883 13.0579 37.6874 12.6807 38.627 12.6758H193.68C194.145 12.6782 194.606 12.772 195.034 12.9519C195.463 13.1318 195.852 13.3943 196.18 13.7243C196.507 14.0543 196.766 14.4454 196.942 14.8752C197.117 15.3051 197.207 15.7653 197.204 16.2296V121.926Z" fill="#E6E6E6"/>
<path d="M195.375 120.196C195.375 121.107 195.012 121.981 194.367 122.625C193.721 123.27 192.845 123.632 191.932 123.632H40.4815C39.5683 123.632 38.6925 123.27 38.0467 122.625C37.401 121.981 37.0382 121.107 37.0382 120.196V18.0091C37.0382 17.0977 37.401 16.2237 38.0467 15.5792C38.6925 14.9348 39.5683 14.5728 40.4815 14.5728H191.939C192.851 14.5746 193.725 14.9374 194.369 15.5817C195.013 16.2259 195.375 17.0989 195.375 18.0091V120.196Z" fill="white"/>
<path d="M45.1326 19.0093H187.442C187.984 19.0093 188.504 19.2242 188.888 19.6067C189.271 19.9892 189.486 20.508 189.486 21.049V116.759C189.486 117.3 189.271 117.819 188.888 118.201C188.504 118.584 187.984 118.799 187.442 118.799H45.1326C44.5906 118.799 44.0707 118.584 43.6874 118.201C43.3041 117.819 43.0888 117.3 43.0888 116.759V21.049C43.0888 20.508 43.3041 19.9892 43.6874 19.6067C44.0707 19.2242 44.5906 19.0093 45.1326 19.0093Z" fill="#E6E6E6"/>
<path d="M46.934 21.3047H185.486C186.028 21.3047 186.548 21.5196 186.932 21.9021C187.315 22.2846 187.53 22.8034 187.53 23.3444V113.947C187.53 114.488 187.315 115.007 186.932 115.39C186.548 115.772 186.028 115.987 185.486 115.987H46.934C46.3919 115.987 45.8721 115.772 45.4888 115.39C45.1055 115.007 44.8902 114.488 44.8902 113.947V23.3444C44.8902 22.8034 45.1055 22.2846 45.4888 21.9021C45.8721 21.5196 46.3919 21.3047 46.934 21.3047Z" fill="white"/>
<path d="M144.761 84.245C144.216 84.2446 143.677 84.13 143.179 83.9085C143.063 83.8571 142.952 83.7944 142.849 83.7214L132.779 76.6478C132.269 76.2891 131.852 75.8131 131.564 75.2599C131.277 74.7068 131.126 74.0927 131.126 73.4695V63.8226C131.126 63.1994 131.277 62.5853 131.564 62.0322C131.852 61.479 132.269 61.003 132.779 60.6443L142.849 53.5707C142.952 53.4976 143.063 53.435 143.179 53.3836C143.772 53.1205 144.422 53.0094 145.069 53.0604C145.716 53.1115 146.34 53.3232 146.884 53.6761C147.428 54.0291 147.876 54.5122 148.185 55.0815C148.495 55.6509 148.657 56.2884 148.657 56.9362V80.3559C148.657 81.387 148.247 82.3759 147.516 83.1051C146.786 83.8342 145.795 84.2438 144.761 84.2438L144.761 84.245Z" fill="#3F3D56"/>
<path d="M122.226 86.1414H94.142C88.4124 86.1368 83.769 82.4406 83.7631 77.8797V59.4122C83.769 54.8513 88.4124 51.1551 94.142 51.1504H122.299C127.988 51.1557 132.598 54.8254 132.605 59.3539V77.8797C132.599 82.4406 127.956 86.1368 122.226 86.1414Z" fill="#3F3D56"/>
<path d="M172.253 110.161C176.866 110.161 180.606 106.429 180.606 101.825C180.606 97.2217 176.866 93.4897 172.253 93.4897C167.64 93.4897 163.901 97.2217 163.901 101.825C163.901 106.429 167.64 110.161 172.253 110.161Z" fill="#E6E6E6"/>
<path d="M176.592 101.676L169.934 97.84C169.908 97.8249 169.878 97.8169 169.847 97.8169C169.817 97.8169 169.787 97.8249 169.761 97.84C169.735 97.8552 169.713 97.8769 169.698 97.9032C169.682 97.9294 169.674 97.9591 169.674 97.9894V105.662C169.674 105.692 169.682 105.722 169.698 105.748C169.713 105.774 169.735 105.796 169.761 105.811C169.787 105.826 169.817 105.834 169.847 105.834C169.878 105.834 169.908 105.826 169.934 105.811L176.592 101.975C176.618 101.96 176.64 101.938 176.655 101.912C176.67 101.886 176.678 101.856 176.678 101.826C176.678 101.795 176.67 101.766 176.655 101.739C176.64 101.713 176.618 101.691 176.592 101.676L169.934 97.84C169.908 97.8249 169.878 97.8169 169.847 97.8169C169.817 97.8169 169.787 97.8249 169.761 97.84C169.735 97.8552 169.713 97.8769 169.698 97.9032C169.682 97.9294 169.674 97.9591 169.674 97.9894V105.662C169.674 105.692 169.682 105.722 169.698 105.748C169.713 105.774 169.735 105.796 169.761 105.811C169.787 105.826 169.817 105.834 169.847 105.834C169.878 105.834 169.908 105.826 169.934 105.811L176.592 101.975C176.618 101.96 176.64 101.938 176.655 101.912C176.67 101.886 176.678 101.856 176.678 101.826C176.678 101.795 176.67 101.766 176.655 101.739C176.64 101.713 176.618 101.691 176.592 101.676Z" fill="white"/>
<path d="M162.101 136.446C162.106 137.384 161.738 138.285 161.077 138.952C160.416 139.618 159.517 139.995 158.577 140H3.52419C3.05897 139.998 2.59879 139.904 2.16991 139.724C1.74103 139.544 1.35186 139.282 1.02461 138.952C0.697363 138.622 0.43845 138.231 0.262656 137.801C0.086861 137.371 -0.00237247 136.911 4.84962e-05 136.446V30.7497C-0.00486427 29.812 0.363657 28.9108 1.02454 28.2444C1.68543 27.5779 2.58454 27.2007 3.52409 27.1958H158.577C159.042 27.1982 159.503 27.2921 159.932 27.472C160.36 27.6519 160.75 27.9143 161.077 28.2443C161.404 28.5743 161.663 28.9654 161.839 29.3952C162.015 29.8251 162.104 30.2853 162.101 30.7496V136.446Z" fill="#E6E6E6"/>
<path d="M160.272 134.715C160.272 135.627 159.91 136.501 159.264 137.145C158.618 137.789 157.742 138.151 156.829 138.151H5.37865C4.46542 138.151 3.5896 137.789 2.94386 137.145C2.29811 136.501 1.93533 135.627 1.93533 134.715V32.5286C1.93533 31.6172 2.29811 30.7432 2.94386 30.0988C3.5896 29.4543 4.46542 29.0923 5.37865 29.0923H156.836C157.748 29.0941 158.622 29.457 159.266 30.1012C159.911 30.7454 160.272 31.6184 160.272 32.5286V134.715Z" fill="white"/>
<path d="M10.0298 33.5288H152.34C152.882 33.5288 153.401 33.7437 153.785 34.1262C154.168 34.5087 154.383 35.0275 154.383 35.5685V131.279C154.383 131.82 154.168 132.339 153.785 132.721C153.401 133.104 152.882 133.318 152.34 133.318H10.0298C9.48773 133.318 8.96787 133.104 8.58458 132.721C8.20129 132.339 7.98596 131.82 7.98596 131.279V35.5685C7.98596 35.0275 8.20129 34.5087 8.58458 34.1262C8.96787 33.7437 9.48773 33.5288 10.0298 33.5288Z" fill="#E6E6E6"/>
<path d="M11.8311 35.8247H150.383C150.652 35.8247 150.918 35.8775 151.166 35.98C151.414 36.0825 151.639 36.2327 151.829 36.4221C152.018 36.6115 152.169 36.8364 152.272 37.0838C152.374 37.3313 152.427 37.5965 152.427 37.8644V128.467C152.427 128.735 152.374 129 152.272 129.248C152.169 129.495 152.018 129.72 151.829 129.91C151.639 130.099 151.414 130.249 151.166 130.352C150.918 130.454 150.652 130.507 150.383 130.507H11.8311C11.2891 130.507 10.7692 130.292 10.3859 129.91C10.0026 129.527 9.78729 129.008 9.78729 128.467V37.8644C9.78729 37.3234 10.0026 36.8046 10.3859 36.4221C10.7692 36.0396 11.2891 35.8247 11.8311 35.8247Z" fill="white"/>
<path d="M109.659 98.7645C109.113 98.7641 108.574 98.6495 108.076 98.428C107.96 98.3766 107.849 98.314 107.746 98.2409L97.6766 91.1673C97.1659 90.8086 96.7491 90.3326 96.4614 89.7795C96.1737 89.2263 96.0234 88.6122 96.0233 87.989V78.3422C96.0234 77.7189 96.1737 77.1048 96.4614 76.5517C96.7491 75.9986 97.1659 75.5226 97.6766 75.1638L107.746 68.0903C107.849 68.0172 107.96 67.9545 108.076 67.9032C108.669 67.64 109.319 67.5289 109.966 67.58C110.613 67.6311 111.237 67.8427 111.781 68.1957C112.326 68.5486 112.773 69.0317 113.082 69.6011C113.392 70.1704 113.554 70.8079 113.554 71.4557V94.8754C113.554 95.9066 113.144 96.8955 112.413 97.6246C111.683 98.3537 110.692 98.7633 109.659 98.7633L109.659 98.7645Z" fill="#6C63FF"/>
<path d="M87.1232 100.661H59.0392C53.3095 100.656 48.6661 96.9601 48.6602 92.3992V73.9317C48.6661 69.3708 53.3095 65.6746 59.0392 65.6699H87.1965C92.8854 65.6753 97.4954 69.345 97.5021 73.8734V92.3992C97.4963 96.9601 92.8529 100.656 87.1232 100.661Z" fill="#6C63FF"/>
<path d="M137.15 124.681C141.763 124.681 145.503 120.949 145.503 116.345C145.503 111.742 141.763 108.01 137.15 108.01C132.538 108.01 128.798 111.742 128.798 116.345C128.798 120.949 132.538 124.681 137.15 124.681Z" fill="#3F3D56"/>
<path d="M141.489 116.196L134.831 112.36C134.805 112.344 134.775 112.336 134.744 112.336C134.714 112.336 134.684 112.344 134.658 112.36C134.632 112.375 134.61 112.396 134.595 112.423C134.58 112.449 134.572 112.479 134.572 112.509V120.181C134.572 120.211 134.58 120.241 134.595 120.267C134.61 120.294 134.632 120.315 134.658 120.331C134.684 120.346 134.714 120.354 134.744 120.354C134.775 120.354 134.805 120.346 134.831 120.331L141.489 116.494C141.515 116.479 141.537 116.458 141.552 116.431C141.567 116.405 141.575 116.375 141.575 116.345C141.575 116.315 141.567 116.285 141.552 116.259C141.537 116.233 141.515 116.211 141.489 116.196L134.831 112.36C134.805 112.344 134.775 112.336 134.744 112.336C134.714 112.336 134.684 112.344 134.658 112.36C134.632 112.375 134.61 112.396 134.595 112.423C134.58 112.449 134.572 112.479 134.572 112.509V120.181C134.572 120.211 134.58 120.241 134.595 120.267C134.61 120.294 134.632 120.315 134.658 120.331C134.684 120.346 134.714 120.354 134.744 120.354C134.775 120.354 134.805 120.346 134.831 120.331L141.489 116.494C141.515 116.479 141.537 116.458 141.552 116.431C141.567 116.405 141.575 116.375 141.575 116.345C141.575 116.315 141.567 116.285 141.552 116.259C141.537 116.233 141.515 116.211 141.489 116.196Z" fill="white"/>
</g>
<defs>
<clipPath id="clip0_820_32914">
<rect width="233" height="140" fill="white"/>
</clipPath>
</defs>
</svg>
