<svg width="298" height="200" viewBox="0 0 298 200" fill="none" xmlns="http://www.w3.org/2000/svg">
<g clip-path="url(#clip0_948_583)">
<path d="M289.915 192.282L286.982 193.536L280.765 182.777L285.094 180.925L289.915 192.282Z" fill="#FFB6B6"/>
<path d="M265.677 195.067L262.489 195.067L260.972 182.723H265.678L265.677 195.067Z" fill="#FFB6B6"/>
<path d="M265.789 198.405L255.985 198.405V198.28C255.985 197.265 256.387 196.291 257.103 195.572C257.819 194.854 258.789 194.451 259.801 194.45L261.592 193.087L264.934 194.451L265.79 194.451L265.789 198.405Z" fill="#2F2E41"/>
<path d="M291.699 194.419L282.679 198.277L282.631 198.163C282.234 197.228 282.223 196.174 282.601 195.231C282.979 194.289 283.714 193.535 284.645 193.137L285.76 191.177L289.367 191.117L290.154 190.78L291.699 194.419Z" fill="#2F2E41"/>
<path d="M262.55 122.008L257.704 151.625L259.023 156.039L257.292 159.164L259.834 186.616L258.802 188.895L261.684 190.679H267.549L267.86 165.828L269.308 162.179V160.168L272.257 145.014L272.8 162.348L273.658 166.003L272.938 168.605L273.879 170.428L281.948 187.819H288.524L288.015 183.886C289.193 183.287 286.246 181.537 285.963 180.242L286.931 178.055L285.963 173.924L285.075 165.852L286.011 148.814L285.571 125.87C283.363 122.898 280.914 120.607 277.878 119.965L262.55 122.008Z" fill="#2F2E41"/>
<path d="M274.35 83.0042C278.02 83.0042 280.995 80.0176 280.995 76.3334C280.995 72.6492 278.02 69.6626 274.35 69.6626C270.68 69.6626 267.704 72.6492 267.704 76.3334C267.704 80.0176 270.68 83.0042 274.35 83.0042Z" fill="#FFB6B6"/>
<path d="M246.95 129.006C246.868 128.631 246.868 128.243 246.95 127.868C247.033 127.493 247.197 127.141 247.43 126.837C247.663 126.533 247.96 126.284 248.299 126.107C248.638 125.93 249.012 125.83 249.394 125.814L252.071 116.881L255.166 120.602L252.149 128.515C252.134 129.161 251.883 129.779 251.443 130.251C251.004 130.723 250.408 131.018 249.767 131.078C249.126 131.139 248.485 130.961 247.966 130.579C247.447 130.197 247.086 129.637 246.95 129.006Z" fill="#FFB6B6"/>
<path d="M264.316 92.2867L263.116 90.0864L261.57 90.6045C261.57 90.6045 259.864 91.71 257.474 95.8833C256.369 97.8135 253.98 110.191 253.98 110.191L248.395 125.035L254.088 126.001L258.839 113.768L264.346 102.061L264.316 92.2867Z" fill="#6C63FF"/>
<path d="M274.104 121.915C278.783 121.915 283.504 122.839 285.437 126.145C285.387 125.426 285.26 124.18 285.128 123.036L284.645 119.964L285.135 117.146L285.782 116.496L284.622 115.331L285.414 109.45L288.026 95.5962C288.231 94.5063 288.072 93.379 287.572 92.3896C287.073 91.4003 286.261 90.6043 285.265 90.1256L282.755 88.9139L278.685 85.1251L271.324 85.0698L268.923 88.2038L262.601 90.3591L263.662 112.395L262.967 114.024C263.123 114.167 263.452 114.475 263.63 114.672C263.882 114.952 263.561 116.393 263.347 117.227L263.053 119.448L263.978 120.111L262.776 121.537L262.535 123.347C263.729 123.063 268.89 121.915 274.104 121.915Z" fill="#6C63FF"/>
<path d="M276.05 82.6771C276.078 82.6144 276.107 82.5515 276.135 82.4883C276.124 82.4886 276.113 82.4902 276.102 82.4905L276.05 82.6771Z" fill="#2F2E41"/>
<path d="M281.18 69.9658C280.865 69.667 280.455 69.489 280.022 69.4629C279.592 69.4768 279.156 69.8664 279.245 70.2887C278.456 68.8858 277.199 67.8068 275.696 67.2411C274.194 66.6754 272.54 66.6592 271.027 67.1952C269.959 67.5735 268.911 68.3302 268.666 69.4401C268.642 69.7315 268.555 70.0142 268.412 70.2688C268.288 70.4049 268.127 70.5015 267.949 70.5468C267.77 70.5922 267.583 70.5842 267.409 70.5239L267.399 70.5207C267.339 70.5003 267.275 70.4983 267.214 70.515C267.154 70.5316 267.099 70.5661 267.059 70.6141C267.018 70.662 266.992 70.7211 266.985 70.7838C266.978 70.8465 266.99 70.9098 267.019 70.9657L267.321 71.5314C266.94 71.6167 266.545 71.6082 266.168 71.5068C266.105 71.4903 266.039 71.4937 265.978 71.5164C265.918 71.5392 265.865 71.5802 265.829 71.6339C265.792 71.6876 265.773 71.7513 265.774 71.8163C265.775 71.8813 265.796 71.9443 265.834 71.9969C266.337 72.6866 266.992 73.2491 267.749 73.6397C268.506 74.0302 269.344 74.2381 270.195 74.2466C271.402 74.2392 272.622 73.8214 273.797 74.1002C274.252 74.208 274.677 74.4166 275.04 74.7108C275.404 75.0049 275.698 75.377 275.9 75.7999C276.101 76.2228 276.206 76.6857 276.207 77.1546C276.207 77.6235 276.103 78.0865 275.902 78.5097C276.263 78.1134 276.961 78.2072 277.33 78.5958C277.5 78.8039 277.626 79.0447 277.699 79.3035C277.773 79.5623 277.793 79.8335 277.758 80.1003C277.659 80.9175 277.417 81.7107 277.044 82.4433C278.472 82.3993 279.852 81.9163 280.997 81.0598C282.143 80.2032 282.999 79.0144 283.45 77.6537C283.901 76.2931 283.925 74.8263 283.52 73.4515C283.114 72.0766 282.297 70.8599 281.18 69.9658Z" fill="#2F2E41"/>
<path d="M66.4057 45.06C75.5305 45.06 82.9277 37.6347 82.9277 28.4751C82.9277 19.3155 75.5305 11.8901 66.4057 11.8901C57.2808 11.8901 49.8836 19.3155 49.8836 28.4751C49.8836 37.6347 57.2808 45.06 66.4057 45.06Z" fill="#6C63FF"/>
<path d="M19.9688 77.8101C11.6786 59.403 11.9843 36.0711 24.8504 20.5383C29.1548 42.077 40.9102 61.3931 58.0366 75.0691C64.6606 80.3193 72.5727 85.4665 74.3822 93.7417C75.5082 98.8906 73.9122 104.337 71.153 108.822C68.3937 113.307 64.5475 116.997 60.745 120.633L60.3184 121.877C43.7728 110.378 28.259 96.2172 19.9688 77.8101Z" fill="#F2F2F2"/>
<path d="M25.2085 20.763C22.2475 37.0384 24.4472 54.3688 31.6442 69.2802C33.2002 72.504 35.0581 75.6383 37.5456 78.2312C40.0342 80.8251 43.0097 82.4581 46.4326 83.4613C49.5618 84.3784 52.8685 84.9527 55.7211 86.6174C58.728 88.3721 60.594 91.3164 61.3209 94.6928C62.2103 98.8238 61.568 103.029 60.7974 107.12C59.9418 111.662 58.9815 116.366 60.2213 120.932C60.3715 121.485 59.5075 121.687 59.3575 121.134C57.2005 113.191 61.3943 105.356 60.8081 97.3692C60.5346 93.6424 59.1406 89.9759 55.9573 87.8166C53.1736 85.9285 49.7642 85.3333 46.5878 84.4321C43.2526 83.486 40.2573 82.0407 37.7085 79.6432C35.1012 77.1908 33.1173 74.1227 31.486 70.953C27.8071 63.8045 25.382 55.9285 24.0989 47.9988C22.6235 38.8847 22.7121 29.5844 24.3609 20.5002C24.4632 19.938 25.3101 20.2045 25.2085 20.763Z" fill="white"/>
<path d="M29.0501 64.5572C26.3644 65.4212 23.4601 65.2988 20.8559 64.2118C18.2518 63.1247 16.1173 61.1439 14.8338 58.623C14.5759 58.112 15.3548 57.6856 15.6131 58.1973C16.804 60.547 18.7924 62.3919 21.2194 63.3992C23.6465 64.4065 26.3523 64.5097 28.8485 63.6902C29.3911 63.5128 29.5897 64.3808 29.0501 64.5572Z" fill="white"/>
<path d="M44.7849 83.2059C47.4687 78.0839 48.1306 72.1346 46.6387 66.5445C46.4905 65.9907 47.3544 65.789 47.5025 66.342C49.0441 72.1622 48.3427 78.3519 45.5383 83.6758C45.2706 84.1831 44.5187 83.7104 44.7849 83.2059Z" fill="white"/>
<path d="M23.7636 39.1732C24.8722 39.0563 25.9345 38.6649 26.8551 38.0341C27.7757 37.4033 28.5258 36.5529 29.038 35.5593C29.2991 35.049 30.0508 35.5221 29.7913 36.0291C29.2204 37.1243 28.3908 38.0624 27.3753 38.7616C26.3597 39.4608 25.1889 39.8997 23.9653 40.0401C23.8511 40.063 23.7324 40.0414 23.6335 39.9797C23.5346 39.918 23.4627 39.8208 23.4326 39.7079C23.4065 39.593 23.4266 39.4724 23.4886 39.3722C23.5506 39.2721 23.6494 39.2006 23.7636 39.1732Z" fill="white"/>
<path d="M92.9868 20.7188C92.8328 21.0421 92.6787 21.3655 92.5283 21.6955C90.4801 26.0537 88.788 30.5717 87.4687 35.205C87.3611 35.5616 87.2573 35.9246 87.1601 36.2836C84.1001 47.4802 83.1377 59.1498 84.3216 70.6992C84.7969 75.2945 85.6198 79.8469 86.7832 84.3169C88.3902 90.49 90.6219 97.0549 90.1184 103.219C90.073 103.863 89.988 104.503 89.8638 105.136L61.8638 122.303C61.7806 122.31 61.7011 122.324 61.6176 122.331L60.5309 123.068C60.4548 122.841 60.3808 122.605 60.3048 122.379C60.2601 122.248 60.2217 122.113 60.1771 121.982C60.1493 121.893 60.1218 121.804 60.0916 121.726C60.0823 121.696 60.0732 121.667 60.0678 121.644C60.0376 121.565 60.0179 121.489 59.9917 121.417C59.5743 120.097 59.1654 118.772 58.7651 117.441C58.7612 117.435 58.7612 117.435 58.7635 117.424C55.7388 107.278 53.5313 96.7885 52.9801 86.2963C52.9636 85.9807 52.943 85.6588 52.9393 85.3352C52.7169 80.6045 52.8802 75.8634 53.4273 71.1594C53.7352 68.5845 54.1727 66.027 54.7382 63.4966C56.2119 56.9612 58.7004 50.6992 62.1127 44.94C68.9166 33.4603 79.3023 24.2926 92.0131 20.9635C92.3384 20.8786 92.6577 20.7973 92.9868 20.7188Z" fill="#F2F2F2"/>
<path d="M93.1409 21.114C81.0149 32.3195 72.3767 47.4863 69.1795 63.7417C68.4882 67.2561 68.0918 70.8816 68.5227 74.4552C68.9539 78.0303 70.3502 81.1324 72.4815 84.002C74.43 86.6255 76.7257 89.0825 78.0049 92.1357C79.3532 95.3539 79.0772 98.8325 77.6325 101.968C75.8649 105.804 72.8296 108.773 69.7608 111.574C66.3534 114.683 62.7652 117.859 61.0166 122.254C60.8047 122.786 59.9939 122.425 60.2055 121.893C63.2479 114.247 71.2956 110.526 75.6178 103.795C77.6347 100.654 78.7208 96.8838 77.4742 93.2359C76.3841 90.046 74.0189 87.5102 72.0232 84.8711C69.9277 82.0999 68.403 79.1356 67.8058 75.681C67.195 72.1472 67.4511 68.4985 68.0498 64.9818C69.4 57.0508 72.1876 49.2966 75.9192 42.1897C80.2077 34.0209 85.8567 26.6486 92.6217 20.392C93.0406 20.0049 93.557 20.7295 93.1409 21.114Z" fill="white"/>
<path d="M69.941 58.4027C67.2783 57.4694 65.0329 55.6164 63.6056 53.1746C62.1783 50.7328 61.6622 47.8613 62.1493 45.0728C62.2499 44.5089 63.1275 44.6392 63.0269 45.2038C62.5684 47.7996 63.0495 50.4744 64.3832 52.7455C65.7169 55.0166 67.8154 56.7342 70.3 57.5885C70.8397 57.7748 70.4776 58.5879 69.941 58.4027Z" fill="white"/>
<path d="M71.3191 82.8025C76.534 80.3348 80.6308 75.9847 82.7925 70.6196C83.0063 70.0879 83.8171 70.4489 83.6036 70.98C81.3437 76.5588 77.0712 81.077 71.6388 83.633C71.1208 83.8762 70.804 83.0445 71.3191 82.8025Z" fill="white"/>
<path d="M80.9447 34.9407C81.9 35.5172 82.983 35.8465 84.0964 35.8992C85.2099 35.9518 86.3189 35.726 87.324 35.2422C87.8386 34.9925 88.1549 35.8244 87.6437 36.0725C86.5308 36.6019 85.3056 36.8497 84.0753 36.7943C82.845 36.7389 81.6469 36.382 80.5857 35.7547C80.4808 35.704 80.399 35.615 80.357 35.506C80.315 35.3969 80.316 35.2759 80.3597 35.1676C80.4077 35.06 80.4962 34.9759 80.6057 34.9334C80.7152 34.8909 80.8371 34.8935 80.9447 34.9407Z" fill="white"/>
<path d="M159.272 57.648C150.982 39.2408 151.288 15.9089 164.154 0.376221C168.458 21.9149 180.214 41.231 197.34 54.907C203.964 60.1572 211.876 65.3044 213.686 73.5795C214.812 78.7285 213.216 84.1747 210.457 88.6599C207.697 93.1452 203.851 96.8348 200.049 100.471L199.622 101.715C183.076 90.2162 167.563 76.0551 159.272 57.648Z" fill="#F2F2F2"/>
<path d="M164.512 0.600875C161.551 16.8763 163.751 34.2067 170.948 49.1181C172.504 52.3419 174.362 55.4762 176.849 58.069C179.338 60.663 182.313 62.2959 185.736 63.2991C188.865 64.2163 192.172 64.7906 195.025 66.4553C198.031 68.21 199.898 71.1543 200.624 74.5307C201.514 78.6617 200.871 82.8672 200.101 86.958C199.245 91.4999 198.285 96.204 199.525 100.77C199.675 101.323 198.811 101.525 198.661 100.972C196.504 93.0285 200.698 85.1937 200.112 77.2071C199.838 73.4803 198.444 69.8138 195.261 67.6545C192.477 65.7664 189.068 65.1711 185.891 64.27C182.556 63.3238 179.561 61.8786 177.012 59.4811C174.405 57.0287 172.421 53.9606 170.79 50.7909C167.111 43.6424 164.686 35.7664 163.402 27.8367C161.927 18.7226 162.016 9.42226 163.664 0.338118C163.767 -0.224091 164.614 0.0423536 164.512 0.600875Z" fill="white"/>
<path d="M168.354 44.3951C165.668 45.2591 162.764 45.1367 160.159 44.0497C157.555 42.9626 155.421 40.9818 154.137 38.4609C153.879 37.9499 154.658 37.5235 154.917 38.0352C156.108 40.3849 158.096 42.2298 160.523 43.2371C162.95 44.2444 165.656 44.3476 168.152 43.5281C168.695 43.3507 168.893 44.2187 168.354 44.3951Z" fill="white"/>
<path d="M184.088 63.0438C186.772 57.9218 187.434 51.9725 185.942 46.3824C185.794 45.8286 186.658 45.6268 186.806 46.1799C188.348 52.0001 187.646 58.1898 184.842 63.5137C184.574 64.0209 183.822 63.5483 184.088 63.0438Z" fill="white"/>
<path d="M163.067 19.0111C164.176 18.8942 165.238 18.5028 166.159 17.872C167.079 17.2412 167.829 16.3908 168.342 15.3972C168.603 14.8868 169.354 15.36 169.095 15.867C168.524 16.9621 167.694 17.9003 166.679 18.5995C165.663 19.2987 164.493 19.7376 163.269 19.878C163.155 19.9009 163.036 19.8793 162.937 19.8176C162.838 19.7559 162.766 19.6587 162.736 19.5458C162.71 19.4309 162.73 19.3103 162.792 19.2101C162.854 19.11 162.953 19.0385 163.067 19.0111Z" fill="white"/>
<path d="M232.29 0.556396C232.136 0.879763 231.982 1.20313 231.832 1.53311C229.784 5.89133 228.092 10.4094 226.772 15.0427C226.665 15.3993 226.561 15.7623 226.464 16.1212C223.404 27.3179 222.441 38.9875 223.625 50.5368C224.1 55.1321 224.923 59.6845 226.087 64.1545C227.694 70.3277 229.925 76.8926 229.422 83.0566C229.377 83.7003 229.292 84.3406 229.167 84.9737L201.167 102.141C201.084 102.148 201.005 102.162 200.921 102.169L199.834 102.905C199.758 102.679 199.684 102.443 199.608 102.216C199.564 102.085 199.525 101.95 199.481 101.819C199.453 101.731 199.425 101.642 199.395 101.563C199.386 101.534 199.377 101.504 199.371 101.481C199.341 101.403 199.321 101.327 199.295 101.255C198.878 99.9347 198.469 98.6094 198.069 97.2787C198.065 97.2723 198.065 97.2723 198.067 97.262C195.042 87.1154 192.835 76.6261 192.284 66.134C192.267 65.8183 192.246 65.4964 192.243 65.1729C192.02 60.4421 192.184 55.7011 192.731 50.997C193.039 48.4222 193.476 45.8647 194.042 43.3342C195.515 36.7989 198.004 30.5368 201.416 24.7777C208.22 13.2979 218.606 4.1303 231.317 0.801176C231.642 0.716248 231.961 0.634908 232.29 0.556396Z" fill="#F0F0F0"/>
<path d="M232.444 0.951891C220.318 12.1574 211.68 27.3242 208.483 43.5796C207.792 47.094 207.395 50.7195 207.826 54.2931C208.257 57.8682 209.654 60.9703 211.785 63.8399C213.733 66.4634 216.029 68.9204 217.308 71.9736C218.657 75.1918 218.381 78.6704 216.936 81.8056C215.168 85.6415 212.133 88.6112 209.064 91.4117C205.657 94.5211 202.069 97.6967 200.32 102.092C200.108 102.624 199.297 102.263 199.509 101.731C202.551 94.0849 210.599 90.3638 214.921 83.6326C216.938 80.4917 218.024 76.7217 216.778 73.0738C215.688 69.8839 213.322 67.3481 211.327 64.709C209.231 61.9378 207.706 58.9735 207.109 55.5189C206.499 51.9851 206.755 48.3364 207.353 44.8197C208.704 36.8887 211.491 29.1345 215.223 22.0276C219.511 13.8588 225.16 6.48653 231.925 0.229845C232.344 -0.157231 232.861 0.567345 232.444 0.951891Z" fill="white"/>
<path d="M209.245 38.2408C206.582 37.3075 204.336 35.4545 202.909 33.0127C201.482 30.571 200.966 27.6994 201.453 24.9109C201.553 24.347 202.431 24.4773 202.33 25.0419C201.872 27.6378 202.353 30.3126 203.687 32.5836C205.02 34.8547 207.119 36.5724 209.604 37.4267C210.143 37.613 209.781 38.426 209.245 38.2408Z" fill="white"/>
<path d="M210.623 62.6404C215.838 60.1727 219.934 55.8226 222.096 50.4575C222.31 49.9258 223.121 50.2868 222.907 50.8179C220.647 56.3967 216.375 60.9149 210.942 63.4709C210.424 63.7141 210.107 62.8823 210.623 62.6404Z" fill="white"/>
<path d="M220.248 14.7788C221.203 15.3553 222.286 15.6847 223.4 15.7373C224.513 15.7899 225.622 15.5642 226.628 15.0803C227.142 14.8306 227.458 15.6626 226.947 15.9106C225.834 16.44 224.609 16.6879 223.379 16.6325C222.149 16.5771 220.95 16.2201 219.889 15.5928C219.784 15.5421 219.702 15.4532 219.661 15.3441C219.619 15.2351 219.619 15.1141 219.663 15.0057C219.711 14.8981 219.8 14.814 219.909 14.7715C220.019 14.729 220.141 14.7317 220.248 14.7788Z" fill="white"/>
<path d="M53.6092 194.162L56.6696 196.541L68.5684 198.613L81.7939 165.612C81.7939 165.612 89.8929 140.179 112.57 145.383L185.462 144.082C185.462 144.082 207.842 141.779 211.541 152.374C212.241 154.381 231.14 198.714 231.14 198.714L244.391 196.837L242.803 159.041L211.331 85.7094L156.629 82.2808L100.26 86.1972L53.6092 194.162Z" fill="#3F3D56"/>
<path d="M114.19 147.659C125.82 147.659 135.248 138.195 135.248 126.521C135.248 114.847 125.82 105.383 114.19 105.383C102.56 105.383 93.1325 114.847 93.1325 126.521C93.1325 138.195 102.56 147.659 114.19 147.659Z" fill="#2F2E41"/>
<path d="M184.814 147.659C196.443 147.659 205.871 138.195 205.871 126.521C205.871 114.847 196.443 105.383 184.814 105.383C173.184 105.383 163.756 114.847 163.756 126.521C163.756 138.195 173.184 147.659 184.814 147.659Z" fill="#2F2E41"/>
<path d="M89.5689 57.2546L98.2392 55.548C98.2392 55.548 163.519 46.198 204.781 57.2546L201.66 66.0349L92.4846 65.3845L89.5689 57.2546Z" fill="#E6E6E6"/>
<path d="M177.586 102.619H122.185C115.459 102.619 109.645 97.944 108.362 91.5022L102.299 61.0627C102.165 60.3984 102.17 59.7134 102.315 59.0513C102.459 58.3892 102.74 57.7647 103.138 57.2175C103.555 56.6435 104.085 56.1616 104.695 55.8018C105.305 55.4419 105.983 55.2119 106.685 55.1258C135.904 51.4852 164.837 51.479 192.681 55.1069C193.374 55.1921 194.041 55.4194 194.643 55.7747C195.244 56.1301 195.766 56.6058 196.177 57.1724C196.572 57.7117 196.854 58.3269 197.003 58.98C197.151 59.633 197.165 60.3097 197.042 60.9682L191.445 91.3143C190.237 97.8649 184.408 102.619 177.586 102.619Z" fill="#6C63FF"/>
<path d="M64.925 62.2105L65.1663 57.8545C65.2039 57.1759 65.4047 56.5165 65.7517 55.9329C66.0986 55.3492 66.5812 54.8586 67.1583 54.503C70.6562 52.3489 80.0919 47.6063 92.1332 50.0924C92.9788 50.2681 93.75 50.7009 94.3419 51.332C94.9338 51.963 95.3178 52.7617 95.4417 53.6195L95.7641 55.8861L64.925 62.2105Z" fill="#3F3D56"/>
<path d="M234.727 62.2105L203.888 55.886L204.406 52.2447C204.465 51.8147 204.652 51.4125 204.941 51.0898C205.23 50.767 205.609 50.5385 206.029 50.4336C219.916 46.9354 230.545 53.1477 233.472 55.1351C233.75 55.3244 233.981 55.5753 234.146 55.8684C234.312 56.1614 234.409 56.4888 234.428 56.8252L234.727 62.2105Z" fill="#3F3D56"/>
<path d="M55.1333 197.002C54.3901 197.01 53.6602 196.804 53.0302 196.409C44.7728 191.568 39.6249 182.699 37.741 170.053C36.185 159.607 36.8348 146.496 39.6723 131.084C44.703 103.759 55.247 76.4459 59.5468 65.9714C60.1164 64.5889 61.0015 63.36 62.1309 62.3837C63.2603 61.4074 64.6024 60.7111 66.0489 60.3507C74.9131 58.1622 90.3872 54.4907 94.4283 54.4907C99.9664 54.4907 102.963 59.7238 102.993 59.7767L103.009 59.8199L107.873 80.9903V81.2958C110.556 90.4085 108.562 96.9913 106.416 100.909C104.086 105.162 101.072 107.285 101.042 107.306C96.3085 110.923 88.5969 122.576 80.9221 137.713C72.9466 153.443 67.0343 168.964 65.1069 179.233C62.7479 191.802 59.2899 195.649 56.8043 196.664C56.2746 196.885 55.7069 197 55.1333 197.002Z" fill="#E6E6E6"/>
<path d="M175.76 100.018H123.414C120.324 100.013 117.332 98.9326 114.948 96.9598C112.564 94.987 110.937 92.2446 110.344 89.2011L104.615 59.5966C104.488 58.9413 104.496 58.2668 104.638 57.6147C104.781 56.9626 105.055 56.3468 105.444 55.8053C105.833 55.2638 106.329 54.8081 106.9 54.4663C107.472 54.1246 108.107 53.9041 108.766 53.8184C136.376 50.2776 163.715 50.2715 190.024 53.7999C190.674 53.8888 191.3 54.109 191.863 54.4471C192.427 54.7853 192.916 55.2344 193.302 55.7675C193.687 56.3006 193.962 56.9066 194.108 57.5489C194.254 58.1912 194.269 58.8565 194.152 59.5048L188.864 89.0184C188.313 92.1042 186.698 94.8972 184.303 96.9081C181.907 98.9191 178.883 100.02 175.76 100.018Z" fill="#E6E6E6"/>
<path d="M244.519 197.003C243.945 197 243.377 196.885 242.847 196.664C240.362 195.649 236.904 191.802 234.545 179.233C232.617 168.964 226.705 153.443 218.73 137.713C211.055 122.576 203.343 110.923 198.604 107.302C198.58 107.285 195.565 105.162 193.236 100.909C191.089 96.9913 189.096 90.4085 191.779 81.2958L191.783 80.9537L196.648 59.7971L196.659 59.7767C196.689 59.7239 199.685 54.4907 205.223 54.4907C209.264 54.4907 224.738 58.1622 233.603 60.3507C235.049 60.7112 236.391 61.4076 237.521 62.3838C238.65 63.3601 239.535 64.589 240.105 65.9715C244.405 76.446 254.948 103.759 259.979 131.084C262.817 146.496 263.467 159.607 261.911 170.053C260.027 182.699 254.879 191.568 246.61 196.416C245.983 196.808 245.258 197.011 244.519 197.003Z" fill="#E6E6E6"/>
<path d="M114.19 135.626C121.168 135.626 126.824 129.948 126.824 122.944C126.824 115.939 121.168 110.261 114.19 110.261C107.212 110.261 101.555 115.939 101.555 122.944C101.555 129.948 107.212 135.626 114.19 135.626Z" fill="#3F3D56"/>
<path d="M114.19 131.399C118.842 131.399 122.613 127.613 122.613 122.944C122.613 118.274 118.842 114.489 114.19 114.489C109.538 114.489 105.767 118.274 105.767 122.944C105.767 127.613 109.538 131.399 114.19 131.399Z" fill="#2F2E41"/>
<path d="M184.814 135.626C191.791 135.626 197.448 129.948 197.448 122.944C197.448 115.939 191.791 110.261 184.814 110.261C177.836 110.261 172.179 115.939 172.179 122.944C172.179 129.948 177.836 135.626 184.814 135.626Z" fill="#3F3D56"/>
<path d="M184.814 131.399C189.466 131.399 193.237 127.613 193.237 122.944C193.237 118.274 189.466 114.489 184.814 114.489C180.162 114.489 176.391 118.274 176.391 122.944C176.391 127.613 180.162 131.399 184.814 131.399Z" fill="#2F2E41"/>
<path d="M141.727 107.659C142.264 107.659 142.699 107.223 142.699 106.684C142.699 106.145 142.264 105.708 141.727 105.708C141.19 105.708 140.755 106.145 140.755 106.684C140.755 107.223 141.19 107.659 141.727 107.659Z" fill="#2F2E41"/>
<path d="M145.938 107.659C146.475 107.659 146.91 107.223 146.91 106.684C146.91 106.145 146.475 105.708 145.938 105.708C145.401 105.708 144.966 106.145 144.966 106.684C144.966 107.223 145.401 107.659 145.938 107.659Z" fill="#2F2E41"/>
<path d="M143.994 111.236C144.531 111.236 144.966 110.8 144.966 110.261C144.966 109.722 144.531 109.286 143.994 109.286C143.458 109.286 143.023 109.722 143.023 110.261C143.023 110.8 143.458 111.236 143.994 111.236Z" fill="#2F2E41"/>
<path d="M147.882 111.236C148.419 111.236 148.854 110.8 148.854 110.261C148.854 109.722 148.419 109.286 147.882 109.286C147.345 109.286 146.91 109.722 146.91 110.261C146.91 110.8 147.345 111.236 147.882 111.236Z" fill="#2F2E41"/>
<path d="M151.77 111.236C152.306 111.236 152.741 110.8 152.741 110.261C152.741 109.722 152.306 109.286 151.77 109.286C151.233 109.286 150.798 109.722 150.798 110.261C150.798 110.8 151.233 111.236 151.77 111.236Z" fill="#2F2E41"/>
<path d="M155.657 111.236C156.194 111.236 156.629 110.8 156.629 110.261C156.629 109.722 156.194 109.286 155.657 109.286C155.12 109.286 154.685 109.722 154.685 110.261C154.685 110.8 155.12 111.236 155.657 111.236Z" fill="#2F2E41"/>
<path d="M150.15 107.659C150.686 107.659 151.122 107.223 151.122 106.684C151.122 106.145 150.686 105.708 150.15 105.708C149.613 105.708 149.178 106.145 149.178 106.684C149.178 107.223 149.613 107.659 150.15 107.659Z" fill="#2F2E41"/>
<path d="M154.361 107.659C154.898 107.659 155.333 107.223 155.333 106.684C155.333 106.145 154.898 105.708 154.361 105.708C153.825 105.708 153.389 106.145 153.389 106.684C153.389 107.223 153.825 107.659 154.361 107.659Z" fill="#2F2E41"/>
<path d="M158.573 107.659C159.109 107.659 159.545 107.223 159.545 106.684C159.545 106.145 159.109 105.708 158.573 105.708C158.036 105.708 157.601 106.145 157.601 106.684C157.601 107.223 158.036 107.659 158.573 107.659Z" fill="#2F2E41"/>
<path d="M154.037 136.764H145.614C145.228 136.764 144.857 136.61 144.583 136.336C144.31 136.061 144.156 135.689 144.156 135.301C144.156 134.913 144.31 134.541 144.583 134.266C144.857 133.992 145.228 133.838 145.614 133.838H154.037C154.424 133.838 154.795 133.992 155.068 134.266C155.342 134.541 155.495 134.913 155.495 135.301C155.495 135.689 155.342 136.061 155.068 136.336C154.795 136.61 154.424 136.764 154.037 136.764Z" fill="#2F2E41"/>
<path d="M98.2653 73.152C97.7217 73.1505 97.1944 72.9652 96.7686 72.626C96.3428 72.2867 96.0433 71.8134 95.9185 71.2823L94.6267 65.7774C94.4806 65.1516 94.5878 64.4932 94.925 63.9469C95.2622 63.4005 95.8016 63.0108 96.4248 62.8634C97.048 62.7161 97.704 62.8231 98.2487 63.161C98.7933 63.4988 99.1821 64.0399 99.3295 64.6654L100.621 70.1703C100.704 70.5267 100.706 70.8973 100.626 71.2544C100.547 71.6116 100.388 71.946 100.161 72.2328C99.9346 72.5195 99.6464 72.7511 99.3181 72.9103C98.9898 73.0695 98.6299 73.1521 98.2653 73.152Z" fill="#3F3D56"/>
<path d="M201.71 72.8268C201.346 72.8269 200.986 72.7443 200.658 72.5851C200.329 72.4259 200.041 72.1943 199.814 71.9076C199.588 71.6208 199.429 71.2864 199.349 70.9292C199.269 70.5721 199.271 70.2015 199.354 69.8451L200.646 64.3402C200.793 63.7148 201.182 63.1737 201.727 62.8358C202.272 62.4979 202.928 62.3909 203.551 62.5382C204.174 62.6856 204.713 63.0753 205.051 63.6217C205.388 64.168 205.495 64.8264 205.349 65.4522L204.057 70.9571C203.932 71.4882 203.633 71.9616 203.207 72.3008C202.781 72.64 202.254 72.8253 201.71 72.8268Z" fill="#3F3D56"/>
<path d="M80.4424 89.4015C79.6475 89.4017 78.8717 89.1561 78.2207 88.698L75.5093 86.7927C74.9992 86.4339 74.5826 85.9571 74.295 85.4025C74.0073 84.8479 73.857 84.2319 73.8568 83.6066V77.7716C73.8581 76.5998 74.3224 75.4765 75.1477 74.648C75.9731 73.8194 77.0922 73.3534 78.2595 73.3521H82.4125C83.5797 73.3534 84.6988 73.8194 85.5242 74.648C86.3496 75.4765 86.8139 76.5998 86.8152 77.7716V83.664C86.8141 84.273 86.6709 84.8734 86.3972 85.417C86.1236 85.9606 85.7269 86.4324 85.2391 86.7946L82.7405 88.6427C82.075 89.1358 81.2696 89.4017 80.4424 89.4015Z" fill="#3F3D56"/>
<path d="M82.4125 110.749H78.2595C77.0922 110.748 75.9731 110.282 75.1478 109.453C74.3224 108.625 73.8581 107.501 73.8568 106.33V100.495C73.857 99.8693 74.0073 99.2534 74.295 98.6988C74.5826 98.1442 74.9992 97.6673 75.5093 97.3085L78.2207 95.4033C78.8849 94.9361 79.6785 94.6901 80.4895 94.7C81.3005 94.7099 82.0879 94.9752 82.7405 95.4585L85.2391 97.3066C85.7269 97.6688 86.1235 98.1406 86.3972 98.6842C86.6709 99.2278 86.8141 99.8282 86.8152 100.437V106.33C86.8139 107.501 86.3496 108.625 85.5242 109.453C84.6988 110.282 83.5797 110.748 82.4125 110.749Z" fill="#3F3D56"/>
<path d="M95.371 98.5542H89.558C88.9351 98.5539 88.3215 98.403 87.769 98.1143C87.2165 97.8255 86.7415 97.4074 86.3841 96.8953L84.486 94.1736C84.0205 93.5069 83.7754 92.7102 83.7853 91.8962C83.7952 91.0821 84.0595 90.2917 84.541 89.6366L86.3822 87.1285C86.743 86.6388 87.2129 86.2407 87.7545 85.966C88.296 85.6912 88.8941 85.5475 89.5009 85.5464H95.371C96.5383 85.5477 97.6573 86.0138 98.4827 86.8423C99.3081 87.6708 99.7724 88.7942 99.7737 89.9659V94.1347C99.7724 95.3064 99.3081 96.4297 98.4827 97.2583C97.6573 98.0868 96.5383 98.5528 95.371 98.5542Z" fill="#3F3D56"/>
<path d="M70.79 98.5542H64.9771C63.8098 98.5528 62.6907 98.0868 61.8653 97.2583C61.04 96.4297 60.5757 95.3064 60.5743 94.1347V89.9659C60.5757 88.7942 61.0399 87.6708 61.8653 86.8423C62.6907 86.0138 63.8098 85.5477 64.9771 85.5464H70.8471C71.4539 85.5475 72.052 85.6912 72.5936 85.966C73.1351 86.2407 73.6051 86.6388 73.9659 87.1285L75.807 89.6366C76.2885 90.2917 76.5529 91.0821 76.5628 91.8962C76.5726 92.7102 76.3275 93.5069 75.8621 94.1736L73.964 96.8953C73.6066 97.4074 73.1316 97.8255 72.5791 98.1143C72.0266 98.403 71.4129 98.5539 70.79 98.5542Z" fill="#3F3D56"/>
<path d="M219.478 82.9453C223.593 82.9453 226.929 79.5966 226.929 75.4658C226.929 71.335 223.593 67.9863 219.478 67.9863C215.362 67.9863 212.026 71.335 212.026 75.4658C212.026 79.5966 215.362 82.9453 219.478 82.9453Z" fill="#3F3D56"/>
<path d="M236 100.18C240.115 100.18 243.451 96.8315 243.451 92.7007C243.451 88.5699 240.115 85.2212 236 85.2212C231.884 85.2212 228.548 88.5699 228.548 92.7007C228.548 96.8315 231.884 100.18 236 100.18Z" fill="#3F3D56"/>
<path d="M219.478 116.44C223.593 116.44 226.929 113.091 226.929 108.96C226.929 104.83 223.593 101.481 219.478 101.481C215.362 101.481 212.026 104.83 212.026 108.96C212.026 113.091 215.362 116.44 219.478 116.44Z" fill="#3F3D56"/>
<path d="M202.956 99.8549C207.071 99.8549 210.407 96.5063 210.407 92.3755C210.407 88.2447 207.071 84.896 202.956 84.896C198.84 84.896 195.504 88.2447 195.504 92.3755C195.504 96.5063 198.84 99.8549 202.956 99.8549Z" fill="#3F3D56"/>
<path d="M236 97.5786C235.039 97.5786 234.099 97.2925 233.3 96.7565C232.501 96.2205 231.878 95.4587 231.51 94.5674C231.142 93.676 231.046 92.6953 231.234 91.749C231.421 90.8028 231.884 89.9337 232.564 89.2515C233.243 88.5693 234.109 88.1047 235.052 87.9165C235.994 87.7283 236.971 87.8249 237.859 88.1941C238.747 88.5633 239.506 89.1885 240.04 89.9906C240.574 90.7928 240.859 91.7359 240.859 92.7007C240.858 93.9939 240.345 95.2338 239.434 96.1483C238.523 97.0627 237.288 97.5771 236 97.5786ZM236 88.4731C235.167 88.4731 234.352 88.7211 233.66 89.1856C232.967 89.6501 232.427 90.3104 232.109 91.0829C231.79 91.8553 231.707 92.7054 231.869 93.5254C232.032 94.3455 232.433 95.0988 233.022 95.69C233.611 96.2812 234.361 96.6838 235.178 96.847C235.995 97.0101 236.842 96.9264 237.611 96.6064C238.381 96.2864 239.039 95.7446 239.501 95.0494C239.964 94.3541 240.211 93.5368 240.211 92.7007C240.21 91.5798 239.766 90.5053 238.976 89.7127C238.187 88.9202 237.116 88.4744 236 88.4731Z" fill="#E6E6E6"/>
<path d="M224.684 79.0945L214.919 78.9559L219.921 70.5356L224.684 79.0945ZM216.05 78.3214L223.571 78.4283L219.903 71.8364L216.05 78.3214Z" fill="#E6E6E6"/>
<path d="M206.843 96.2778H199.068V88.4731H206.843V96.2778ZM199.716 95.6274H206.195V89.1235H199.716V95.6274Z" fill="#E6E6E6"/>
<path d="M223.498 112.318L219.936 108.75L223.078 105.603L222.619 105.142L219.478 108.29L216.336 105.142L215.878 105.603L219.019 108.75L215.457 112.318L215.915 112.779L219.478 109.209L223.041 112.779L223.498 112.318Z" fill="#E6E6E6"/>
<path d="M80.4317 24.0388C79.4706 24.0388 78.5311 23.7527 77.7319 23.2167C76.9328 22.6807 76.31 21.9189 75.9422 21.0276C75.5744 20.1363 75.4781 19.1555 75.6656 18.2092C75.8531 17.263 76.316 16.3939 76.9956 15.7117C77.6752 15.0295 78.541 14.5649 79.4837 14.3767C80.4263 14.1885 81.4034 14.2851 82.2913 14.6543C83.1793 15.0235 83.9382 15.6487 84.4722 16.4509C85.0061 17.253 85.2911 18.1961 85.2911 19.1609C85.2897 20.4541 84.7772 21.694 83.8662 22.6085C82.9552 23.5229 81.72 24.0373 80.4317 24.0388ZM80.4317 14.9333C79.5987 14.9333 78.7845 15.1813 78.0919 15.6458C77.3993 16.1103 76.8595 16.7706 76.5408 17.5431C76.222 18.3156 76.1386 19.1656 76.3011 19.9856C76.4636 20.8057 76.8647 21.559 77.4537 22.1502C78.0427 22.7414 78.7931 23.1441 79.6101 23.3072C80.427 23.4703 81.2738 23.3866 82.0434 23.0666C82.8129 22.7466 83.4707 22.2048 83.9334 21.5096C84.3962 20.8144 84.6432 19.997 84.6432 19.1609C84.642 18.04 84.1978 16.9655 83.4083 16.1729C82.6188 15.3804 81.5483 14.9346 80.4317 14.9333Z" fill="#E6E6E6"/>
<path d="M69.4404 15.961L59.6747 15.8224L64.6773 7.4021L69.4404 15.961ZM60.806 15.1879L68.3274 15.2947L64.6589 8.70288L60.806 15.1879Z" fill="#E6E6E6"/>
<path d="M55.067 27.8247H47.2919V20.02H55.067V27.8247ZM47.9399 27.1743H54.4191V20.6704H47.9399V27.1743Z" fill="#E6E6E6"/>
<path d="M62.099 42.3558L58.537 38.7871L61.6782 35.6402L61.2204 35.1797L58.0783 38.3276L54.9362 35.1797L54.4784 35.6402L57.6196 38.7871L54.0576 42.3558L54.5154 42.8162L58.0783 39.2466L61.6412 42.8162L62.099 42.3558Z" fill="#E6E6E6"/>
<path opacity="0.2" d="M281.516 112.05L268.942 121.55L283.136 115.302L281.516 112.05Z" fill="black"/>
<path d="M48.9118 123.757L33.0377 124.407L31.0939 113.676L44.7003 109.448L48.9118 123.757Z" fill="#A0616A"/>
<path d="M43.0755 97.4566L39.5349 93.8377L43.8762 87.1745L51.3066 74.7589C51.0638 74.2241 50.9885 73.6278 51.0906 73.0491C51.1928 72.4703 51.4676 71.9364 51.8786 71.5178C52.2897 71.0992 52.8176 70.8157 53.3927 70.7049C53.9677 70.5941 54.5627 70.6611 55.099 70.8971C55.6352 71.1331 56.0875 71.527 56.3959 72.0266C56.7043 72.5262 56.8543 73.108 56.8262 73.6951C56.798 74.2822 56.5929 74.8469 56.2381 75.3144C55.8833 75.782 55.3954 76.1304 54.839 76.3135L48.7059 89.5682L43.0755 97.4566Z" fill="#A0616A"/>
<path d="M39.1534 105.718C38.7377 106.364 38.1454 106.877 37.4472 107.194C36.7491 107.511 35.9747 107.62 35.2166 107.507C34.4951 107.422 33.8141 107.127 33.2573 106.658C32.7005 106.19 32.2921 105.568 32.0823 104.87C31.9277 104.374 31.8827 103.851 31.9504 103.336C32.0181 102.821 32.1968 102.327 32.4742 101.889C34.8427 97.8809 39.2112 92.5877 39.255 92.5349L39.3245 92.4507L46.6925 94.0531L39.1534 105.718Z" fill="#6C63FF"/>
<path d="M45.1283 194.419L49.5306 194.419L51.6247 177.374L45.1273 177.374L45.1283 194.419Z" fill="#A0616A"/>
<path d="M44.0051 192.976L52.6749 192.976H52.6753C54.1406 192.976 55.5459 193.56 56.582 194.6C57.6182 195.64 58.2003 197.051 58.2004 198.522V198.702L44.0054 198.702L44.0051 192.976Z" fill="#2F2E41"/>
<path d="M10.8499 192.506L15.2026 193.166L19.8119 176.627L14.1057 175.652L10.8499 192.506Z" fill="#A0616A"/>
<path d="M9.95434 190.911L18.5268 192.211L18.5271 192.211C19.976 192.431 21.2784 193.22 22.148 194.404C23.0176 195.588 23.3832 197.07 23.1642 198.524L23.1374 198.702L9.10181 196.573L9.95434 190.911Z" fill="#2F2E41"/>
<path d="M32.3896 121.155L47.6158 118.554L52.3271 128.302L52.5066 191.922L44.15 191.869L40.6567 140.377L18.3933 187.957L9.41608 186.876L28.9864 135.871C28.9864 135.871 27.9091 126.86 31.3204 122.354L32.3896 121.155Z" fill="#2F2E41"/>
<path d="M26.737 101.95C26.5043 101.248 26.4796 100.494 26.6659 99.778C26.8522 99.0624 27.2414 98.4166 27.7864 97.9189L29.9503 95.9444L36.0508 94.9127L39.8652 94.2168L45.9961 112.05L31.1058 118.917C29.799 118.634 29.277 117.916 30.0374 116.49L26.737 101.95Z" fill="#6C63FF"/>
<path d="M40.4027 107.967L44.6623 105.238L50.2586 110.88L60.8226 120.746C61.3942 120.618 61.9909 120.667 62.5338 120.887C63.0768 121.107 63.5404 121.488 63.8633 121.978C64.1863 122.468 64.3534 123.045 64.3424 123.633C64.3315 124.221 64.1431 124.791 63.8022 125.269C63.4612 125.747 62.9838 126.11 62.433 126.309C61.8823 126.509 61.2841 126.536 60.7178 126.386C60.1514 126.237 59.6434 125.919 59.2611 125.474C58.8788 125.029 58.6402 124.478 58.5767 123.893L46.9266 115.128L40.4027 107.967Z" fill="#A0616A"/>
<path d="M33.1617 102.406C32.6179 101.864 32.241 101.176 32.0762 100.425C31.9113 99.674 31.9655 98.891 32.2322 98.1699C32.465 97.4791 32.8936 96.8714 33.4654 96.4216C34.0371 95.9717 34.7273 95.6991 35.4512 95.6372C35.9662 95.5879 36.4857 95.652 36.9734 95.825C37.4612 95.9979 37.9055 96.2756 38.2754 96.6387C41.6919 99.7938 45.9475 105.179 45.99 105.233L46.0575 105.319L42.9717 112.223L33.1617 102.406Z" fill="#6C63FF"/>
<path d="M33.3735 92.7435C37.072 92.7435 40.0701 89.7339 40.0701 86.0214C40.0701 82.3089 37.072 79.2993 33.3735 79.2993C29.6751 79.2993 26.6769 82.3089 26.6769 86.0214C26.6769 89.7339 29.6751 92.7435 33.3735 92.7435Z" fill="#A0616A"/>
<path d="M27.9519 95.5975C26.9134 95.5973 25.8759 95.5338 24.8451 95.4074L24.7038 95.3901L23.6251 89.5118C23.1676 87.0199 23.6777 84.4468 25.0506 82.3205C26.4236 80.1942 28.5552 78.6761 31.0081 78.0777C31.1717 78.0361 31.3437 78.0406 31.505 78.0907C31.6662 78.1408 31.8106 78.2346 31.9223 78.3618L32.1795 78.2718C33.1645 77.927 34.2074 77.7803 35.2488 77.8402C36.2902 77.9 37.3097 78.1652 38.249 78.6205C39.1883 79.0758 40.0291 79.7124 40.7233 80.4939C41.4175 81.2754 41.9516 82.1865 42.2951 83.1752L42.3588 83.3589L40.642 83.9598C40.1071 84.147 39.6205 84.4516 39.2176 84.8514C38.8147 85.2511 38.5056 85.736 38.3129 86.2708C38.1201 86.8055 38.0485 87.3766 38.1033 87.9426C38.1581 88.5086 38.3379 89.0553 38.6296 89.5428L40.3849 92.476L40.198 92.57C36.4095 94.5308 32.2141 95.5679 27.9519 95.5975Z" fill="#2F2E41"/>
<path d="M258.016 123.727C258.094 123.351 258.252 122.997 258.481 122.689C258.709 122.382 259.002 122.128 259.339 121.947C259.676 121.765 260.048 121.66 260.43 121.638C260.812 121.617 261.194 121.679 261.549 121.822L267.639 114.776L268.942 119.444L262.958 125.419C262.68 126.002 262.199 126.462 261.605 126.712C261.012 126.962 260.348 126.985 259.738 126.777C259.129 126.568 258.617 126.142 258.3 125.58C257.983 125.018 257.882 124.359 258.016 123.727Z" fill="#FFB6B6"/>
<path d="M285.194 92.7492L287.689 92.6138L288.064 94.2058C288.064 94.2058 288.027 96.2444 285.752 100.482C283.477 104.719 265.85 123.585 265.85 123.585L262.033 119.236L271.468 109.48L277.183 99.2551L285.194 92.7492Z" fill="#6C63FF"/>
<path d="M0.903922 199.063H297.096C297.203 199.063 297.306 199.021 297.382 198.945C297.457 198.869 297.5 198.765 297.5 198.658C297.5 198.55 297.457 198.447 297.382 198.371C297.306 198.295 297.203 198.252 297.096 198.252H0.903922C0.79678 198.252 0.694027 198.295 0.618266 198.371C0.542505 198.447 0.499939 198.55 0.499939 198.658C0.499939 198.765 0.542505 198.869 0.618266 198.945C0.694027 199.021 0.79678 199.063 0.903922 199.063Z" fill="#CCCCCC"/>
</g>
<defs>
<clipPath id="clip0_948_583">
<rect width="297" height="199.037" fill="white" transform="translate(0.499939 0.0266113)"/>
</clipPath>
</defs>
</svg>
