<svg width="129" height="250" viewBox="0 0 129 250" fill="none" xmlns="http://www.w3.org/2000/svg">
<g clip-path="url(#clip0_948_680)">
<path d="M1.45414 165.748C1.26513 165.748 1.11218 165.595 1.11218 165.406V69.0635C1.11218 44.8194 20.8396 25.0957 45.0882 25.0957H119.339C119.528 25.0957 119.681 25.2486 119.681 25.4376C119.681 25.6266 119.528 35.0105 119.339 35.0105L45.0882 25.7795C21.2169 25.7795 1.79609 45.1967 1.79609 69.0635V165.406C1.79609 165.595 1.64314 165.748 1.45414 165.748Z" fill="#3F3D56"/>
<path d="M119.599 0.17334C119.788 0.17334 119.941 0.326257 119.941 0.515229V96.8579C119.941 121.102 100.213 140.826 75.9648 140.826H1.71402C1.52502 140.826 1.37207 140.673 1.37207 140.484C1.37207 140.295 1.52502 140.142 1.71402 140.142H75.9649C99.8361 140.142 119.257 120.725 119.257 96.8579V0.515229C119.257 0.326257 119.41 0.17334 119.599 0.17334Z" fill="#3F3D56"/>
<path d="M85.1599 91.561C85.1599 90.0836 85.7479 88.638 86.8526 87.5619L102.429 72.3916C102.835 70.8454 103.612 69.3993 104.677 68.2071C105.963 66.7273 107.542 65.6539 109.123 65.1852C110.73 64.7077 112.151 64.9104 113.124 65.7554C115.108 67.4792 114.545 71.3856 111.871 74.4619C110.84 75.6809 109.517 76.6511 108.043 77.2685L93.9034 91.8412L101.687 103.635C103.195 105.392 103.529 107.825 102.547 109.966C101.598 112.034 99.6144 113.322 97.3696 113.328C94.9686 113.334 92.8428 111.897 91.9532 109.667L85.5602 93.6384C85.2908 92.9627 85.1599 92.2582 85.1599 91.561Z" fill="#FFB6B6"/>
<path d="M98.2268 77.7474C105.026 77.7474 110.537 72.2369 110.537 65.4394C110.537 58.6418 105.026 53.1313 98.2268 53.1313C91.428 53.1313 85.9165 58.6418 85.9165 65.4394C85.9165 72.2369 91.428 77.7474 98.2268 77.7474Z" fill="#3F3D56"/>
<path d="M104.638 98.3794L95.4755 105.363L107.1 113.346L112.933 100.844L104.638 98.3794Z" fill="#FFB6B6"/>
<path d="M109.636 104.387C114.994 104.387 119.337 100.045 119.337 94.6891C119.337 89.3328 114.994 84.9907 109.636 84.9907C104.279 84.9907 99.9362 89.3328 99.9362 94.6891C99.9362 100.045 104.279 104.387 109.636 104.387Z" fill="#FFB6B6"/>
<path d="M110.391 105.557C110.391 105.557 112.577 98.5609 111.164 97.2386C109.752 95.9164 109.797 97.2836 109.797 97.2836L111.588 90.5421C111.588 90.5421 110.735 86.625 105.08 86.0863C105.08 86.0863 107.089 82.2764 110.008 82.905C112.928 83.5336 113.113 84.2522 114.353 84.0101C115.593 83.768 118.163 86.0184 118.163 86.0184C118.163 86.0184 119.48 84.9443 119.331 86.2697C119.182 87.5952 120.581 89.7617 120.581 89.7617C120.581 89.7617 121.377 89.2651 121.158 90.6557C120.939 92.0462 121.969 92.7772 121.969 92.7772C121.969 92.7772 120.605 93.6579 121.043 94.3528C121.48 95.0477 123.23 95.594 122.568 96.3001C121.907 97.0062 122.404 98.6404 120.165 100.365C117.927 102.089 110.391 105.557 110.391 105.557Z" fill="#2F2E41"/>
<path d="M116.137 231.972L116.056 231.887L93.1578 208.101C90.9415 205.799 89.8685 202.657 90.2138 199.48L91.4083 188.49L103.005 190.598L103.448 197.526L122.926 229.114L116.137 231.972Z" fill="#FFB6B6"/>
<path d="M118.92 249.127C118.551 249.127 118.186 249.033 117.853 248.848C117.047 248.4 116.601 247.487 116.745 246.576L117.541 241.536L113.431 232.633L114.515 229.381L120.721 229.037L122.789 226.969L125.106 227.372C126.492 227.612 127.645 228.473 128.271 229.733C128.897 230.992 128.886 232.431 128.24 233.681L120.884 247.932C120.608 248.466 120.138 248.857 119.562 249.031C119.35 249.095 119.134 249.127 118.92 249.127Z" fill="#2F2E41"/>
<path d="M107.288 165.441L102.843 193.476L81.3 203.733L77.8805 176.382L107.288 165.441Z" fill="#2F2E41"/>
<path d="M94.9363 223.765L94.8549 223.681L71.9567 199.895C69.7404 197.593 68.6674 194.45 69.0127 191.273L70.2072 180.283L81.8039 182.391L82.2473 189.32L101.725 220.907L94.9363 223.765Z" fill="#FFB6B6"/>
<path d="M97.719 240.921C97.3496 240.921 96.9847 240.827 96.6517 240.642C95.8456 240.194 95.4005 239.281 95.544 238.37L96.3402 233.331L92.23 224.427L93.314 221.176L99.5199 220.831L101.588 218.763L103.905 219.166C105.291 219.407 106.444 220.268 107.07 221.527C107.696 222.787 107.685 224.225 107.04 225.475L99.6829 239.726C99.4067 240.261 98.9372 240.651 98.3608 240.825C98.1491 240.889 97.9334 240.921 97.719 240.921Z" fill="#2F2E41"/>
<path d="M82.7834 156.051L80.3771 162.595L69.5708 180.241C69.2532 180.759 69.2022 181.379 69.4306 181.942C69.659 182.505 70.1275 182.914 70.7159 183.065L94.5651 189.18L105.606 173.678C108.755 169.256 110.384 163.843 110.201 158.42L82.7834 156.051Z" fill="#2F2E41"/>
<path d="M107.398 162.707H80.0308L80.0462 162.522L83.5014 120.649C83.9543 115.161 86.7927 110.19 91.2889 107.01L91.3363 106.977L110.043 107.67L105.981 145.41L111.382 156.281C112.072 157.669 111.996 159.285 111.179 160.603C110.362 161.92 108.949 162.707 107.398 162.707Z" fill="#6C63FF"/>
<path d="M99.9138 115.4C98.352 115.401 96.8289 114.767 95.7032 113.578L83.8377 101.046C82.2772 99.3983 81.8672 96.9947 82.7928 94.9227L91.6582 75.0704C91.4639 73.4838 91.6512 71.8532 92.2005 70.3517C92.8487 68.5017 93.919 66.9208 95.214 65.9012C96.5321 64.8631 97.9269 64.5259 99.1428 64.9526C101.624 65.8214 102.545 69.6583 101.197 73.5055C100.69 75.0183 99.819 76.4092 98.6776 77.5281L90.9259 96.2936L102.519 104.376C104.568 105.452 105.778 107.588 105.657 109.941C105.54 112.214 104.173 114.144 102.089 114.978C101.38 115.262 100.643 115.4 99.9138 115.4Z" fill="#FFB6B6"/>
<path d="M14.1985 78.3569C17.195 81.944 18.358 86.6893 19.1574 91.294C19.4496 92.9772 19.7053 94.6668 19.9243 96.3611C20.7416 102.686 21.0164 109.287 18.8074 115.269C18.2479 116.784 17.6808 118.825 19.016 119.734C20.0766 120.456 21.6283 119.707 22.2058 118.561C22.7833 117.415 22.6684 116.058 22.5397 114.782C21.1342 116.291 21.5728 119.086 23.3731 120.092C25.1735 121.099 27.7847 120.009 28.3348 118.021C28.6214 120.142 30.7029 121.86 32.8399 121.739C34.9769 121.618 36.8514 119.677 36.897 117.537C35.789 118.714 36.3369 120.846 37.7123 121.695C39.0876 122.545 40.9209 122.306 42.3316 121.516C43.7423 120.727 44.8223 119.471 45.8712 118.241C44.4884 119.096 44.1646 121.257 45.2365 122.479C46.3085 123.701 48.4945 123.661 49.5215 122.401C50.3679 121.363 50.3634 119.848 49.9504 118.574C49.5374 117.3 48.7771 116.171 48.2046 114.96C45.5828 109.415 47.1271 102.839 49.2931 97.1009C51.4592 91.3626 54.2534 85.5918 54.0195 79.4629" fill="white"/>
<path d="M14.0173 78.5388C16.2147 81.1942 17.4115 84.4819 18.195 87.7988C19.0438 91.3927 19.5733 95.0929 19.9471 98.7641C20.3255 102.479 20.4509 106.261 19.8874 109.965C19.6155 111.751 19.1763 113.503 18.5602 115.202C18.1353 116.373 17.6229 117.846 18.1478 119.067C18.7666 120.507 20.4995 120.529 21.6103 119.664C23.0912 118.51 22.9635 116.456 22.7963 114.782C22.7761 114.58 22.5204 114.421 22.3585 114.601C21.2028 115.888 21.1702 117.934 22.1653 119.33C23.2199 120.809 25.1769 121.076 26.7407 120.267C27.6181 119.813 28.3 119.041 28.5823 118.09H28.0876C28.4302 120.35 30.6524 122.193 32.9585 121.987C35.2161 121.786 37.07 119.79 37.1536 117.538C37.1616 117.322 36.8634 117.191 36.7158 117.356C35.9699 118.19 35.8893 119.361 36.3053 120.373C36.7652 121.492 37.7582 122.221 38.9428 122.421C41.9903 122.936 44.2662 120.517 46.0527 118.423C46.2306 118.215 46.0017 117.852 45.7419 118.021C44.6 118.761 44.0966 120.237 44.4552 121.541C44.8322 122.911 46.1698 123.717 47.5576 123.621C49.1182 123.512 50.2265 122.368 50.4358 120.838C50.6894 118.984 49.7405 117.333 48.9 115.761C44.9033 108.284 48.429 100.033 51.24 92.8183C52.9028 88.5502 54.4342 84.1072 54.2761 79.4635C54.2648 79.1344 53.7519 79.1329 53.7631 79.4635C54.0258 87.1762 49.7008 93.9288 47.683 101.139C46.7256 104.56 46.191 108.211 46.8829 111.734C47.2271 113.487 47.2911 115.33 48.1306 116.893C48.9229 118.369 50.4128 119.882 49.7226 121.566C49.0814 123.13 46.9353 123.633 45.6466 122.526C44.4174 121.47 44.6804 119.32 46.0008 118.463L45.69 118.061C44.1315 119.887 42.8819 119.649 40.2657 119.629C39.14 119.62 37.4678 121.481 36.9154 120.469C36.4464 119.609 36.3974 118.48 37.0785 117.719L36.6407 117.538C36.5664 119.539 34.8614 121.362 32.84 121.483C30.7787 121.606 28.8867 119.962 28.5822 117.954C28.5422 117.69 28.1538 117.731 28.0876 117.954C27.5429 119.789 25.1411 120.827 23.4575 119.845C21.8156 118.888 21.4652 116.363 22.7212 114.964L22.2834 114.782C22.4375 116.325 22.633 118.357 21.1654 119.358C20.6086 119.738 19.8567 119.927 19.2404 119.573C18.6396 119.229 19.3989 118.229 19.4066 117.577C19.4238 116.11 19.2101 115.03 19.6108 113.645C20.0895 111.989 20.3974 110.289 20.5781 108.576C20.9468 105.081 20.7717 101.55 20.3857 98.0645C20.0025 94.6045 19.5008 91.1236 18.706 87.732C17.9014 84.2987 16.6518 80.9216 14.38 78.1762C14.1694 77.9217 13.8083 78.2863 14.0173 78.5388Z" fill="#3F3D56"/>
<path d="M34.1106 82.7317C23.667 82.7317 12.5676 80.9942 12.5676 77.7743C12.5676 74.5544 23.667 72.8169 34.1106 72.8169C44.5542 72.8169 55.6536 74.5544 55.6536 77.7743C55.6536 80.9942 44.5542 82.7317 34.1106 82.7317ZM34.1106 73.5007C21.818 73.5007 13.2515 75.753 13.2515 77.7743C13.2515 79.7956 21.818 82.0479 34.1106 82.0479C46.4032 82.0479 54.9697 79.7956 54.9697 77.7743C54.9697 75.753 46.4032 73.5007 34.1106 73.5007Z" fill="#3F3D56"/>
<path d="M10.2007 87.5354C10.0935 87.5354 9.98593 87.5294 9.87873 87.5171L3.2357 86.7512C1.83216 86.5892 0.748194 85.4023 0.714132 83.9897L0.500747 75.1473C0.481379 74.335 0.810977 73.5514 1.40472 72.9968C1.99879 72.4422 2.80425 72.1678 3.61272 72.2426L13.5791 73.1694C14.7035 73.2742 15.6609 74.0338 16.0182 75.1049L17.6194 79.908C17.9894 81.0185 17.6308 82.2642 16.7271 83.0077L12.0159 86.886C11.5053 87.3064 10.8578 87.5354 10.2007 87.5354Z" fill="#3F3D56"/>
</g>
<defs>
<clipPath id="clip0_948_680">
<rect width="128.233" height="248.954" fill="white" transform="translate(0.499939 0.17334)"/>
</clipPath>
</defs>
</svg>
