<svg width="281" height="198" viewBox="0 0 281 198" fill="none" xmlns="http://www.w3.org/2000/svg">
<g clip-path="url(#clip0_595_30882)">
<path d="M221.764 197.283C220.372 197.282 218.987 197.091 217.646 196.714L162.004 181.824L162.167 181.239L217.81 196.129C219.097 196.491 220.427 196.674 221.764 196.675C228.312 196.675 234.12 192.882 235.888 186.58L275.497 45.3624L275.583 45.055C276.623 41.3132 276.138 37.3116 274.233 33.9269C272.328 30.5422 269.159 28.0503 265.42 26.997L175.98 1.923C172.236 0.878352 168.23 1.36096 164.841 3.26499C161.452 5.16901 158.957 8.33901 157.903 12.0797L154.795 23.1615L154.21 22.9974L157.318 11.9156C158.415 8.01965 161.014 4.71808 164.543 2.73507C168.073 0.752055 172.245 0.24952 176.144 1.33769L265.584 26.4117C269.43 27.4949 272.699 30.0406 274.692 33.5037C276.684 36.9667 277.241 41.0719 276.244 44.9405L276.246 44.9412L276.164 45.2339L236.473 186.744C234.632 193.307 228.584 197.283 221.764 197.283Z" fill="#2F2E41"/>
<path d="M158.273 26.3165L159.291 26.6022L162.426 27.4806L162.754 26.3074L161.581 25.9791L162.611 22.3044L165.089 20.1525L165.749 27.1493L163.925 26.6356L163.596 27.8089L168.278 29.1219L168.606 27.9487L167.612 27.6721L166.658 18.7909L171.522 14.563L172.887 14.946L173.215 13.7728L168.53 12.4597L168.202 13.6329L169.746 14.0645L163.56 18.9246L165.274 12.8123L166.448 13.1406L166.776 11.9673L162.091 10.6543L161.763 11.8275L163.52 12.3199L159.826 25.4867L158.069 24.9943L158.024 25.1524L157.835 25.8332L158.273 26.3165Z" fill="#6C63FF"/>
<path d="M165.809 37.4112C164.64 37.9177 163.498 38.4869 162.389 39.1163C162.185 39.2318 161.982 39.3503 161.781 39.4689V35.7091C161.783 34.3566 161.591 33.0107 161.213 31.7122C161.389 31.6028 161.568 31.4843 161.745 31.3657C161.906 31.2594 162.07 31.1499 162.231 31.0405C163.232 33.2664 164.429 35.3985 165.809 37.4112Z" fill="#6C63FF"/>
<path d="M221.529 186.731L220.165 186.348L219.837 187.519L224.521 188.832L224.849 187.661L223.306 187.229L229.491 182.367L227.776 188.482L226.605 188.154L226.277 189.324L230.961 190.637L231.289 189.467L229.532 188.974L233.226 175.805L234.983 176.297L235.311 175.127L230.628 173.814L230.299 174.984L231.47 175.312L230.439 178.988L227.962 181.14L227.304 174.145L229.128 174.656L229.456 173.485L224.773 172.172L224.445 173.343L225.44 173.622L226.395 182.502L221.529 186.731Z" fill="#6C63FF"/>
<path d="M227.241 163.883C229.433 162.943 231.518 161.772 233.461 160.389C234.502 162.594 235.699 164.723 237.042 166.759C234.864 167.727 232.782 168.897 230.822 170.254C229.82 168.028 228.621 165.896 227.241 163.883Z" fill="#6C63FF"/>
<path d="M186.223 100.6C186.223 100.6 184.685 110.585 184.228 111.089C183.772 111.592 187.421 123.348 187.421 123.348L199.122 116.527C199.122 116.527 201.399 103.907 202.148 103.486C202.898 103.065 186.223 100.6 186.223 100.6Z" fill="#FFB8B8"/>
<path opacity="0.1" d="M186.223 100.6C186.223 100.6 184.685 110.585 184.228 111.089C183.772 111.592 187.421 123.348 187.421 123.348L199.122 116.527C199.122 116.527 201.399 103.907 202.148 103.486C202.898 103.065 186.223 100.6 186.223 100.6Z" fill="black"/>
<path d="M195.276 110.268C201.656 110.268 206.829 105.097 206.829 98.7183C206.829 92.3395 201.656 87.1685 195.276 87.1685C188.896 87.1685 183.723 92.3395 183.723 98.7183C183.723 105.097 188.896 110.268 195.276 110.268Z" fill="#FFB8B8"/>
<path d="M190.269 116.57L189.262 115.656L184.737 109.217C184.737 109.217 184.217 108.876 183.725 110.631L183.232 112.387L178.981 114.036L169.574 154.33L194.748 161.387L205.116 121.048L200.246 115.894L199.707 113.408L192.189 116.477L190.269 116.57Z" fill="white"/>
<path d="M161.781 158.459L162.389 158.63L201.595 169.62L214.704 126.263C214.704 126.263 211.604 123.813 209.177 123.448C209.177 123.448 205.104 118.834 203.349 118.342C201.592 117.849 199.65 113.518 199.65 113.518C199.65 113.518 197.597 120.834 194.071 125.527C190.544 130.22 184.403 146.493 184.403 146.493L182.67 116.649L184.616 109.145C183.485 109.815 182.455 110.643 181.557 111.603C180.186 113.111 176.687 114.339 176.687 114.339C176.687 114.339 167.469 116.807 165.84 116.983C164.213 117.156 163.462 117.579 163.462 117.579L162.389 124.962L161.781 129.144V158.459Z" fill="#2F2E41"/>
<path d="M167.132 141.651C166.767 144.073 163.015 154.07 163.015 154.07L162.389 154.699L161.781 155.31V118.287C161.95 118.103 162.158 117.959 162.389 117.864C162.733 117.722 163.094 117.626 163.462 117.579L164.636 117.907C164.636 117.907 167.497 139.225 167.132 141.651Z" fill="#2F2E41"/>
<path d="M193.838 154.504C193.838 154.504 199.591 144.121 203.947 146.605C208.302 149.089 201.32 155.97 201.32 155.97L193.838 154.504Z" fill="#FFB8B8"/>
<path d="M176.028 150.457C176.028 150.457 164.986 147.046 164.74 147.924C164.494 148.802 161.471 153.952 162.349 154.199C163.227 154.445 170.042 156.04 169.96 156.332C169.878 156.625 173.226 158.195 173.226 158.195L176.028 150.457Z" fill="#FFB8B8"/>
<path d="M197.553 117.628L190.526 117.905L189.063 117.494L183.203 113.605L181.263 119.411L188.652 118.958L190.116 119.368L196.192 123.597L197.553 117.628Z" fill="#6C63FF"/>
<path d="M178.669 161.301L177.59 163.599L162.085 159.344L161.781 158.46V153.587L162.389 153.824L163.015 154.071L178.669 161.301Z" fill="#2F2E41"/>
<path d="M179.248 151.361C179.248 151.361 175.607 149.708 175.525 150.001C175.442 150.294 170.556 158.709 171.727 159.038C172.898 159.366 177.043 161.475 177.043 161.475L179.248 151.361Z" fill="white"/>
<path d="M212.656 125.687L214.705 126.261C214.705 126.261 215.876 126.589 215.969 128.509C216.062 130.43 217.651 139.398 216.901 139.819C216.151 140.24 215.941 139.866 216.362 140.615C216.783 141.365 217.158 141.154 216.701 141.657C216.244 142.16 215.196 158.281 211.798 163.642C208.4 169.003 207.368 171.554 206.197 171.226L175.847 162.718C175.847 162.718 177.199 150.786 178.452 150.821C179.705 150.857 200.231 155.349 200.231 155.349C200.231 155.349 208.183 124.748 212.656 125.687Z" fill="#2F2E41"/>
<path d="M188.469 86.0586L186.574 84.6996C186.574 84.6996 192.225 81.5248 198.257 83.6298L197.014 81.4192C197.014 81.4192 201.666 81.068 204.374 86.1722C205.797 88.8553 207.433 91.9988 208.101 95.2107L210.362 95.8443L208.889 97.4662L211.662 100.278L208.368 98.9892C208.232 100.708 207.649 102.361 206.677 103.785L205.318 105.68C205.318 105.68 203.97 98.6804 204.185 97.9131L203.647 99.8314C203.647 99.8314 202.02 97.5132 202.343 96.3623L200.815 97.3823L200.832 95.1108L193.14 95.2307L194.776 93.827L190.201 93.1653L192.52 91.5393C192.52 91.5393 186.832 92.6345 186.048 94.6908C185.265 96.7471 182.017 98.7334 182.017 98.7334L181.404 96.4924C181.404 96.4924 182.098 87.3761 188.469 86.0586Z" fill="#2F2E41"/>
<path d="M184.498 90.2141L184.588 89.8205C185.467 85.9969 178.709 78.886 178.641 78.8146L178.521 78.6894L178.567 78.5224C178.701 78.0456 179.237 77.6223 183.936 78.6406C185.766 79.0371 187.59 79.5203 188.354 79.7275C188.269 77.5443 185.562 74.6518 185.533 74.6212L185.192 74.2604L185.668 74.1208C188.789 73.2062 192.442 76.2395 193.609 77.3136L195.561 70.3564L199.422 76.0585C201.792 72.5108 205.221 72.6545 205.371 72.6628L205.852 72.689L205.621 73.1121C203.997 76.0832 203.704 78.0348 203.687 78.997C208.009 73.8637 211.904 74.3108 212.073 74.3332L212.664 74.4111L212.254 74.8434C206.596 80.8204 205.93 88.705 205.924 88.7839L205.904 89.0496L184.498 90.2141ZM179.314 78.6442C180.509 79.9388 185.675 85.7811 185.247 89.5645L205.346 88.4714C205.511 87.0648 206.531 80.3718 211.336 74.9458C210.027 75.0628 206.937 75.8091 203.683 79.9674L203.31 80.4438L203.15 79.8602C203.125 79.7683 202.581 77.6307 204.838 73.2882C203.803 73.386 201.394 73.9276 199.691 76.7696L199.446 77.1786L195.792 71.7827L193.916 78.4694L193.549 78.0967C193.508 78.0552 189.587 74.1306 186.327 74.5985C187.164 75.5727 189.166 78.1383 188.947 80.1553L188.908 80.5121L188.562 80.4152C184.723 79.3389 180.338 78.4205 179.314 78.6442Z" fill="#6C63FF"/>
<path d="M213.589 72.7317C213.381 72.6735 213.195 72.5551 213.055 72.3913C212.915 72.2275 212.826 72.0259 212.8 71.8118C212.775 71.5977 212.813 71.3808 212.911 71.1885C213.008 70.9963 213.161 70.8372 213.349 70.7316C213.537 70.626 213.752 70.5784 213.967 70.595C214.182 70.6116 214.387 70.6916 214.557 70.8248C214.726 70.9581 214.853 71.1386 214.92 71.3436C214.987 71.5485 214.991 71.7688 214.933 71.9764C214.855 72.2546 214.669 72.4904 214.417 72.632C214.165 72.7736 213.867 72.8095 213.589 72.7317ZM214.013 71.2176C213.921 71.1918 213.824 71.1939 213.733 71.2235C213.643 71.2531 213.563 71.309 213.504 71.384C213.445 71.459 213.409 71.5498 213.402 71.6449C213.395 71.74 213.416 71.8352 213.462 71.9183C213.509 72.0015 213.58 72.0689 213.665 72.1121C213.75 72.1553 213.846 72.1723 213.94 72.1609C214.035 72.1496 214.124 72.1104 214.197 72.0483C214.269 71.9863 214.322 71.9041 214.348 71.8122C214.382 71.6891 214.366 71.5573 214.303 71.4458C214.241 71.3343 214.136 71.2523 214.013 71.2176Z" fill="#6C63FF"/>
<path d="M206.016 70.6092C205.808 70.551 205.622 70.4325 205.482 70.2687C205.342 70.105 205.253 69.9033 205.227 69.6892C205.202 69.4751 205.24 69.2582 205.338 69.066C205.435 68.8737 205.588 68.7147 205.776 68.609C205.964 68.5034 206.179 68.4559 206.394 68.4725C206.609 68.4891 206.814 68.569 206.984 68.7023C207.154 68.8355 207.28 69.016 207.347 69.221C207.414 69.426 207.418 69.6462 207.36 69.8538C207.282 70.132 207.096 70.3678 206.844 70.5095C206.592 70.6511 206.294 70.6869 206.016 70.6092ZM206.44 69.095C206.349 69.0693 206.251 69.0713 206.16 69.101C206.07 69.1306 205.99 69.1864 205.931 69.2614C205.872 69.3364 205.836 69.4272 205.829 69.5223C205.822 69.6174 205.843 69.7126 205.89 69.7958C205.936 69.8789 206.007 69.9464 206.092 69.9895C206.177 70.0327 206.273 70.0497 206.368 70.0384C206.462 70.027 206.552 69.9878 206.624 69.9258C206.696 69.8637 206.749 69.7815 206.775 69.6897C206.809 69.5665 206.793 69.4347 206.73 69.3233C206.668 69.2118 206.563 69.1297 206.44 69.095Z" fill="#6C63FF"/>
<path d="M194.504 69.4236C194.297 69.3654 194.111 69.2469 193.971 69.0832C193.83 68.9194 193.742 68.7178 193.716 68.5037C193.691 68.2896 193.729 68.0727 193.827 67.8804C193.924 67.6881 194.077 67.5291 194.265 67.4235C194.453 67.3179 194.668 67.2703 194.883 67.2869C195.098 67.3035 195.303 67.3835 195.473 67.5167C195.642 67.65 195.769 67.8305 195.836 68.0355C195.902 68.2404 195.907 68.4607 195.849 68.6683C195.771 68.9465 195.585 69.1823 195.333 69.3239C195.081 69.4655 194.783 69.5014 194.504 69.4236ZM194.929 67.9095C194.837 67.8837 194.74 67.8858 194.649 67.9154C194.558 67.945 194.479 68.0009 194.42 68.0759C194.361 68.1509 194.325 68.2417 194.318 68.3368C194.311 68.4319 194.332 68.5271 194.378 68.6102C194.425 68.6934 194.495 68.7608 194.581 68.804C194.666 68.8472 194.762 68.8642 194.856 68.8528C194.951 68.8415 195.04 68.8023 195.113 68.7402C195.185 68.6781 195.238 68.596 195.263 68.5041C195.298 68.381 195.282 68.2492 195.219 68.1377C195.157 68.0262 195.052 67.9442 194.929 67.9095Z" fill="#6C63FF"/>
<path d="M176.128 78.1541C175.92 78.0959 175.734 77.9774 175.594 77.8137C175.454 77.6499 175.365 77.4482 175.339 77.2341C175.314 77.02 175.352 76.8032 175.45 76.6109C175.547 76.4186 175.7 76.2596 175.888 76.154C176.076 76.0483 176.291 76.0008 176.506 76.0174C176.721 76.034 176.926 76.114 177.096 76.2472C177.265 76.3804 177.392 76.561 177.459 76.7659C177.526 76.9709 177.53 77.1911 177.472 77.3987C177.394 77.677 177.208 77.9128 176.956 78.0544C176.704 78.196 176.406 78.2319 176.128 78.1541ZM176.552 76.64C176.46 76.6142 176.363 76.6163 176.272 76.6459C176.182 76.6755 176.102 76.7313 176.043 76.8063C175.984 76.8813 175.948 76.9721 175.941 77.0673C175.934 77.1624 175.955 77.2575 176.002 77.3407C176.048 77.4239 176.119 77.4913 176.204 77.5345C176.289 77.5776 176.385 77.5946 176.479 77.5833C176.574 77.5719 176.663 77.5327 176.736 77.4707C176.808 77.4086 176.861 77.3265 176.887 77.2346C176.921 77.1114 176.905 76.9797 176.842 76.8682C176.78 76.7567 176.675 76.6746 176.552 76.64Z" fill="#6C63FF"/>
<path d="M183.234 73.2049C183.026 73.1467 182.84 73.0282 182.7 72.8644C182.56 72.7007 182.471 72.499 182.445 72.2849C182.42 72.0708 182.458 71.8539 182.556 71.6617C182.653 71.4694 182.806 71.3104 182.994 71.2047C183.182 71.0991 183.397 71.0516 183.612 71.0682C183.827 71.0848 184.032 71.1647 184.202 71.298C184.371 71.4312 184.498 71.6117 184.565 71.8167C184.632 72.0217 184.636 72.2419 184.578 72.4495C184.5 72.7277 184.314 72.9635 184.062 73.1051C183.81 73.2467 183.512 73.2826 183.234 73.2049ZM183.658 71.6907C183.566 71.665 183.469 71.667 183.378 71.6967C183.288 71.7263 183.208 71.7821 183.149 71.8571C183.09 71.9321 183.054 72.0229 183.047 72.118C183.04 72.2132 183.061 72.3083 183.107 72.3915C183.154 72.4746 183.225 72.5421 183.31 72.5852C183.395 72.6284 183.491 72.6454 183.585 72.6341C183.68 72.6227 183.769 72.5835 183.842 72.5215C183.914 72.4594 183.967 72.3772 183.993 72.2854C184.027 72.1622 184.011 72.0304 183.948 71.919C183.886 71.8075 183.781 71.7254 183.658 71.6907Z" fill="#6C63FF"/>
<path d="M219.475 175.58L219.183 175.498L161.875 159.432L162.039 158.847L219.054 174.831L255.09 46.3551L174.736 23.8286L162.48 67.525L161.895 67.3609L174.315 23.0791L174.607 23.1612L255.839 45.9341L255.757 46.2265L219.475 175.58Z" fill="#2F2E41"/>
<path d="M13.1574 187.342C16.9358 194.348 24.9551 197.355 24.9551 197.355C24.9551 197.355 26.8482 189.004 23.0698 181.998C19.2913 174.993 11.2721 171.985 11.2721 171.985C11.2721 171.985 9.37891 180.336 13.1574 187.342Z" fill="#2F2E41"/>
<path d="M15.7546 185.037C22.5762 189.14 25.2035 197.29 25.2035 197.29C25.2035 197.29 16.7706 198.788 9.94894 194.685C3.12727 190.582 0.500031 182.432 0.500031 182.432C0.500031 182.432 8.9329 180.934 15.7546 185.037Z" fill="#6C63FF"/>
<path d="M161.745 31.3654C161.222 29.6426 160.391 28.0289 159.291 26.6026C158.9 26.0929 158.477 25.6087 158.024 25.1528C156.635 23.7551 154.983 22.646 153.164 21.8896C151.344 21.1332 149.393 20.7444 147.423 20.7456H54.5332C50.565 20.7496 46.7605 22.3274 43.9545 25.1326C41.1486 27.9379 39.5704 31.7415 39.5664 35.7087V182.677C39.5704 186.645 41.1486 190.448 43.9545 193.254C46.7605 196.059 50.565 197.637 54.5332 197.641H147.423C151.391 197.637 155.195 196.059 158.001 193.254C160.807 190.448 162.385 186.645 162.389 182.677V35.7087C162.391 34.237 162.174 32.7733 161.745 31.3654ZM161.781 182.677C161.777 186.483 160.263 190.132 157.571 192.823C154.879 195.514 151.229 197.028 147.423 197.033H54.5332C50.7264 197.028 47.0769 195.514 44.3851 192.823C41.6933 190.132 40.179 186.483 40.1744 182.677V35.7087C40.179 31.9029 41.6933 28.2542 44.3851 25.5631C47.0769 22.872 50.7264 21.3581 54.5332 21.3535H147.423C149.372 21.3526 151.301 21.7495 153.091 22.5199C154.882 23.2902 156.496 24.4178 157.835 25.8336C157.984 25.9917 158.13 26.1528 158.273 26.3169C160.536 28.9227 161.782 32.2578 161.781 35.7087V182.677Z" fill="#2F2E41"/>
<path d="M54.3846 44.3648C54.3677 44.3252 54.3468 44.2892 54.3283 44.2511C55.014 42.9097 55.36 41.4206 55.336 39.9144C55.336 35.2028 52.3909 31.9121 48.1743 31.9121C43.9577 31.9121 41.0126 35.2028 41.0126 39.9144C41.0126 44.626 43.9577 47.9167 48.1743 47.9167C49.1696 47.9368 50.1571 47.7368 51.0661 47.331C51.975 46.9252 52.7831 46.3236 53.4325 45.5692C54.7826 47.7534 57.3926 48.0416 57.5129 48.0536L57.6552 46.6569C57.557 46.6463 55.24 46.3753 54.3846 44.3648ZM48.1743 46.5128C44.7844 46.5128 42.4169 43.7994 42.4169 39.9144C42.4169 36.0294 44.7844 33.316 48.1743 33.316C51.5643 33.316 53.9317 36.0294 53.9317 39.9144C53.9455 41.022 53.7269 42.1202 53.2903 43.1382C51.1943 41.8651 47.2948 42.6258 46.766 42.7373L47.0548 44.1112C48.4871 43.8113 51.3367 43.5708 52.5771 44.3488C52.0678 45.0332 51.4029 45.5864 50.6372 45.9627C49.8716 46.339 49.0273 46.5276 48.1743 46.5128Z" fill="#6C63FF"/>
<path d="M48.6869 51.2562C48.2299 50.7999 47.6103 50.5437 46.9645 50.5439C46.3186 50.5442 45.6992 50.8008 45.2426 51.2574C44.7859 51.714 44.5292 52.3331 44.529 52.9789C44.5287 53.6246 44.785 54.2439 45.2413 54.7008L48.6869 58.1455L52.1324 54.7008C52.5878 54.2437 52.8432 53.6247 52.8425 52.9795C52.8419 52.3343 52.5853 51.7158 52.129 51.2596C51.6726 50.8034 51.0539 50.5468 50.4086 50.5462C49.7633 50.5455 49.1441 50.8009 48.6869 51.2562Z" fill="#6C63FF"/>
<path d="M147.571 174.963C147.588 175.002 147.609 175.038 147.627 175.076C146.941 176.418 146.595 177.907 146.619 179.413C146.619 184.125 149.564 187.415 153.781 187.415C157.998 187.415 160.943 184.125 160.943 179.413C160.943 174.702 157.998 171.411 153.781 171.411C152.786 171.391 151.798 171.591 150.889 171.997C149.98 172.402 149.172 173.004 148.523 173.758C147.173 171.574 144.563 171.286 144.443 171.274L144.3 172.671C144.398 172.681 146.715 172.952 147.571 174.963ZM153.781 172.815C157.171 172.815 159.539 175.528 159.539 179.413C159.539 183.298 157.171 186.012 153.781 186.012C150.391 186.012 148.024 183.298 148.024 179.413C148.01 178.306 148.228 177.207 148.665 176.189C150.761 177.462 154.661 176.702 155.189 176.59L154.901 175.216C153.468 175.516 150.619 175.757 149.378 174.979C149.888 174.294 150.553 173.741 151.318 173.365C152.084 172.989 152.928 172.8 153.781 172.815Z" fill="#6C63FF"/>
<path d="M153.269 168.071C153.726 168.527 154.345 168.783 154.991 168.782C155.636 168.782 156.255 168.525 156.711 168.069C157.168 167.613 157.425 166.994 157.425 166.348C157.426 165.703 157.17 165.084 156.714 164.627L153.269 161.182L149.823 164.627C149.367 165.084 149.112 165.703 149.112 166.348C149.113 166.994 149.369 167.613 149.826 168.069C150.282 168.525 150.901 168.782 151.547 168.782C152.192 168.783 152.811 168.527 153.269 168.071Z" fill="#6C63FF"/>
<path d="M108.47 104.242C104.332 97.2502 96.143 96.9243 96.143 96.9243C96.143 96.9243 88.1637 95.9042 83.0451 106.553C78.2741 116.478 71.6895 126.061 81.985 128.385L83.8447 122.598L84.9964 128.816C86.4622 128.921 87.9328 128.946 89.4014 128.891C100.427 128.535 110.927 128.995 110.589 125.04C110.14 119.781 112.453 110.97 108.47 104.242Z" fill="#2F2E41"/>
<path d="M93.2017 128.064C93.2217 128.851 93.2157 129.681 92.8245 130.365C92.0491 131.719 90.156 131.922 89.0174 132.989C87.8199 134.112 87.6843 135.934 87.6273 137.574C87.5676 139.289 87.517 141.06 88.143 142.658C88.5264 143.538 89.011 144.37 89.5871 145.138C90.2824 146.14 90.984 147.138 91.6921 148.13C92.0702 148.69 92.4916 149.218 92.9524 149.712C94.2205 151.003 95.9599 151.718 97.6966 152.228C98.8187 152.558 100.03 152.814 101.144 152.456C101.88 152.169 102.559 151.751 103.148 151.224C103.976 150.566 104.817 149.896 105.417 149.025C106.352 147.669 106.611 145.972 106.805 144.337C107.377 139.501 107.6 134.63 107.472 129.762C107.495 129.232 107.4 128.703 107.193 128.214C106.617 127.088 105.072 126.848 104.259 125.88C103.563 125.052 103.535 123.87 103.541 122.789L103.556 120.037C103.58 119.805 103.533 119.571 103.422 119.366C103.321 119.256 103.199 119.166 103.064 119.103C102.928 119.04 102.781 119.004 102.632 118.998C100.921 118.714 99.1861 118.598 97.4524 118.651C96.0468 118.694 93.3499 118.577 92.1345 119.359C91.0313 120.07 92.4125 122.032 92.6681 123.134C93.0116 124.755 93.1904 126.407 93.2017 128.064Z" fill="#A0616A"/>
<path d="M96.4278 123.337C102.574 123.337 107.556 118.356 107.556 112.212C107.556 106.067 102.574 101.086 96.4278 101.086C90.2819 101.086 85.2997 106.067 85.2997 112.212C85.2997 118.356 90.2819 123.337 96.4278 123.337Z" fill="#A0616A"/>
<path d="M91.8455 139.769C91.1377 138.717 90.5552 137.586 90.11 136.399C89.712 135.196 89.6076 133.853 90.0798 132.677C88.8773 131.98 87.2446 132.545 86.3689 133.624C85.4932 134.704 85.2252 136.151 85.148 137.539C85.0708 138.927 85.1526 140.335 84.8505 141.692C84.1822 144.693 81.7021 147.161 81.5177 150.231C81.3362 153.25 83.4075 155.881 84.4265 158.73C85.0441 160.505 85.3023 162.386 85.186 164.262C85.153 164.868 85.1149 165.558 85.5424 165.988C85.7648 166.183 86.028 166.324 86.3126 166.403C91.2297 168.133 96.5409 168.282 101.752 168.414L110.358 168.632C110.879 168.694 111.406 168.606 111.878 168.378C112.65 167.904 112.754 166.844 112.767 165.938C112.88 158.14 112.548 150.343 112.216 142.551C112.096 139.727 111.974 136.886 111.375 134.124C111.222 133.42 110.972 132.638 110.323 132.328C109.773 132.065 109.121 132.235 108.549 132.446C105.881 133.438 103.576 135.212 101.934 137.537C100.168 140.05 99.2994 143.064 97.5711 145.596C96.3169 147.433 95.5915 145.832 94.7558 144.479C93.7861 142.908 92.8159 141.338 91.8455 139.769Z" fill="white"/>
<path d="M90.5136 132.87C90.2947 133.025 90.0788 133.189 89.8721 133.362C89.0975 134.002 88.4033 134.732 87.8048 135.539C86.814 136.889 86.0254 138.377 85.4638 139.955C84.4545 142.721 84.0167 145.657 83.5972 148.569C83.4141 149.641 83.3155 150.727 83.3023 151.815C83.3661 155.815 85.7314 159.52 85.7344 163.523C85.7344 163.675 85.7314 163.824 85.7223 163.976C85.694 164.631 85.6168 165.283 85.4912 165.927C85.3179 166.866 85.0686 167.793 84.8224 168.717C84.2022 171.033 83.5334 173.434 82.3234 175.468C82.2018 175.674 82.071 175.878 81.9373 176.076H73.4248C73.4917 175.872 73.5616 175.671 73.6285 175.468C75.0786 171.173 76.5278 166.879 77.9759 162.587C78.4198 161.274 78.8637 159.954 79.1768 158.605C79.535 156.939 79.7798 155.25 79.9095 153.55C80.2439 150.028 80.4638 146.498 80.5692 142.961C80.6087 141.69 80.6361 140.393 81.0465 139.189C81.4313 138.208 81.9401 137.281 82.5605 136.429C83.4391 135.107 84.3177 133.785 85.1964 132.463C85.6858 131.727 86.1996 130.97 86.9536 130.511C87.5829 130.125 88.3308 129.986 88.9935 129.66C89.4106 129.424 89.8108 129.159 90.1914 128.867C91.1825 128.165 92.3468 127.426 93.2011 128.144C93.3396 128.259 93.4587 128.395 93.5538 128.548C93.6025 128.623 93.6461 128.701 93.6845 128.782C94.5053 130.557 91.6172 132.089 90.5136 132.87Z" fill="#2F2E41"/>
<path d="M118.556 176.075H79.1312C79.344 175.881 79.5538 175.677 79.7575 175.468C79.7879 175.437 79.8152 175.407 79.8456 175.376C81.3536 173.811 81.6971 171.887 82.4541 169.851C83.0226 168.316 83.5911 166.782 84.1596 165.249C84.2496 164.951 84.3973 164.673 84.5944 164.431C84.7591 164.261 84.9656 164.138 85.1933 164.073C85.3653 164.02 85.5428 163.987 85.7223 163.975C85.9784 163.959 86.2353 163.959 86.4915 163.975C93.5659 164.34 100.635 164.785 107.7 165.31C108.612 165.38 109.524 165.45 110.436 165.519C111.181 166.073 111.916 166.659 112.619 167.279C114.902 169.285 116.881 171.647 118.015 174.437C118.152 174.775 118.276 175.118 118.38 175.468C118.447 175.668 118.504 175.872 118.556 176.075Z" fill="#2F2E41"/>
<path d="M106.641 103.568L98.551 99.3315L87.3792 101.065L85.0678 111.271L90.8216 111.05L92.429 107.3V110.988L95.0839 110.886L96.6247 104.916L97.5878 111.271L107.026 111.078L106.641 103.568Z" fill="#2F2E41"/>
<path d="M118.556 176.075H109.654C109.591 175.875 109.53 175.671 109.472 175.467C108.843 173.207 108.382 170.903 108.092 168.574C107.998 167.908 107.915 167.24 107.839 166.574C107.791 166.152 107.745 165.732 107.7 165.31C107.189 160.617 106.797 155.878 105.362 151.386C105.188 150.842 105 150.301 104.818 149.76C104.481 148.828 104.216 147.872 104.027 146.9C103.638 144.675 103.93 142.371 103.528 140.149C103.304 138.909 102.857 137.818 102.586 136.681C102.414 135.995 102.346 135.287 102.385 134.581C103.04 133.963 103.865 133.555 104.754 133.408C105.061 133.356 105.407 133.317 105.593 133.07C105.702 132.883 105.751 132.667 105.733 132.45C105.754 131.017 105.672 129.584 105.486 128.162C105.426 127.663 105.35 127.165 105.258 126.669C105.255 126.645 105.249 126.624 105.246 126.599C105.988 126.277 106.824 126.274 107.63 126.277C108.508 126.28 109.384 126.28 110.259 126.283C111.88 126.289 113.5 126.295 115.121 126.299C116.629 126.302 118.188 126.317 119.559 126.94C120.976 127.587 122.052 128.837 122.764 130.223C123.475 131.608 123.861 133.134 124.211 134.651C124.308 135.071 124.359 135.5 124.363 135.931C124.43 139.353 121.876 142.8 121.621 146.298C121.538 147.432 121.633 148.575 121.529 149.708C121.426 150.845 121.122 151.957 121.067 153.094C121.064 153.152 121.061 153.213 121.061 153.271C121.028 154.751 121.459 156.201 121.958 157.596C122.73 159.763 123.67 161.863 124.639 163.951C125.576 165.972 126.537 167.984 127.4 170.033C127.849 170.984 128.151 171.997 128.297 173.039C128.393 173.876 128.233 174.723 127.838 175.467C127.736 175.652 127.615 175.824 127.476 175.981L127.47 175.987C127.442 176.018 127.415 176.048 127.388 176.075H118.556Z" fill="#2F2E41"/>
<path d="M127.035 172.957C126.998 173.361 126.888 173.756 126.71 174.121C126.695 174.157 126.679 174.191 126.664 174.227C126.488 174.644 126.309 175.054 126.123 175.467C126.032 175.668 125.941 175.872 125.846 176.075H120.812C120.994 175.885 121.163 175.681 121.317 175.467C122.089 174.394 122.536 173.09 123.323 171.932C123.43 171.774 123.553 171.627 123.691 171.495C124.953 170.273 127.114 170.522 127.035 172.957Z" fill="#FFB8B8"/>
<path d="M130.312 176.075C130.377 175.876 130.43 175.673 130.473 175.467C130.51 175.306 130.54 175.148 130.565 174.987C130.726 173.926 130.723 172.841 130.975 171.799C131.331 170.306 132.398 168.54 131.519 167.285C132.203 167.145 132.847 166.856 133.407 166.44C133.93 165.984 134.234 165.194 133.918 164.574C133.605 163.963 132.757 163.559 132.872 162.881C132.93 162.666 133.031 162.465 133.17 162.291C133.631 161.564 133.869 160.718 133.856 159.858C133.842 158.997 133.578 158.159 133.094 157.446C132.817 157.051 132.477 156.705 132.224 156.291C131.949 155.786 131.737 155.248 131.595 154.69C130.717 151.862 129.423 149.18 127.755 146.732C127.386 146.262 127.099 145.731 126.907 145.164C126.795 144.55 126.773 143.922 126.84 143.301C126.901 140.845 125.983 138.447 124.661 136.38C124.563 136.228 124.463 136.079 124.363 135.93C123.086 134.049 121.502 132.399 119.924 130.76C119.273 131.064 118.699 131.262 118.361 131.894C118.196 132.25 118.094 132.633 118.06 133.025C117.629 136.034 117.255 139.061 116.963 142.085C116.817 143.614 116.668 145.155 116.841 146.681C117.014 148.207 117.534 149.735 118.568 150.869C119.216 151.58 120.036 152.109 120.739 152.766C120.851 152.872 120.961 152.982 121.067 153.094C121.573 153.633 122.023 154.223 122.408 154.854C124.093 157.575 124.874 160.759 124.639 163.951C124.597 164.526 124.521 165.099 124.411 165.665C124.278 166.476 124.004 167.258 123.603 167.975C123.283 168.501 122.864 168.96 122.575 169.504C122.286 170.048 122.149 170.726 122.435 171.27C122.864 171.269 123.289 171.346 123.691 171.495C124.637 171.86 125.46 172.487 126.062 173.303C126.284 173.597 126.485 173.906 126.664 174.227C126.89 174.628 127.091 175.042 127.266 175.467C127.339 175.634 127.409 175.808 127.476 175.981C127.491 176.011 127.503 176.043 127.512 176.075H130.312Z" fill="#2F2E41"/>
<path d="M105.456 123.195L99.0099 126.006L97.4971 126.156L90.6248 124.662L90.9279 130.776L97.6467 127.668L99.1595 127.519L106.357 129.25L105.456 123.195Z" fill="#6C63FF"/>
<path d="M118.38 175.468C118.447 175.668 118.505 175.872 118.556 176.076H120.812C120.994 175.885 121.163 175.682 121.317 175.468H118.38ZM58.7956 42.0366V176.076H142.856V42.0366H58.7956ZM142.248 175.468H59.4036V42.6445H142.248V175.468ZM118.38 175.468C118.447 175.668 118.505 175.872 118.556 176.076H120.812C120.994 175.885 121.163 175.682 121.317 175.468H118.38Z" fill="#2F2E41"/>
<path d="M86.4156 100.677L86.4677 100.416C86.4831 100.338 87.971 92.5668 84.1374 85.2845L83.8601 84.7578L84.4494 84.8421C84.6187 84.8663 88.4895 85.4871 91.2646 91.5964C91.5082 90.6654 91.7534 88.7073 90.9918 85.408L90.8834 84.9383L91.354 85.0429C91.5005 85.0754 94.8408 85.8626 96.1651 89.9185L101.423 85.4705V92.696C102.837 91.9769 107.173 90.0422 109.931 91.7653L110.352 92.0283L109.927 92.2837C109.891 92.3054 106.503 94.3598 105.831 96.4389C106.623 96.4456 108.51 96.4727 110.378 96.5848C115.178 96.8727 115.58 97.4251 115.58 97.9202V98.0936L115.43 98.1818C115.345 98.2321 106.918 103.255 106.731 107.173L106.712 107.577L86.4156 100.677ZM105.445 97.0447H105.086L105.145 96.6907C105.478 94.6894 108.099 92.7595 109.168 92.0474C106.155 90.7169 101.321 93.4374 101.27 93.4664L100.815 93.7259V86.7812L95.8392 90.9904L95.7137 90.5304C94.8417 87.3344 92.6681 86.1625 91.6982 85.789C92.6989 90.5795 91.5977 92.4909 91.5487 92.5726L91.2374 93.0915L91.0069 92.532C88.9962 87.6496 86.2231 86.0971 84.9936 85.6309C88.1554 92.1526 87.3293 98.8722 87.109 100.271L106.166 106.749C106.776 102.991 113.328 98.76 114.828 97.836C113.902 97.344 109.432 97.0447 105.445 97.0447Z" fill="#6C63FF"/>
<path d="M82.3328 81.8011C82.3328 81.5855 82.3968 81.3747 82.5166 81.1955C82.6364 81.0162 82.8067 80.8764 83.006 80.7939C83.2053 80.7114 83.4245 80.6898 83.6361 80.7319C83.8476 80.774 84.0419 80.8778 84.1944 81.0303C84.3469 81.1827 84.4508 81.377 84.4928 81.5885C84.5349 81.8 84.5133 82.0192 84.4308 82.2184C84.3482 82.4176 84.2085 82.5878 84.0291 82.7076C83.8498 82.8274 83.639 82.8914 83.4233 82.8914C83.1342 82.8911 82.857 82.7761 82.6526 82.5717C82.4481 82.3673 82.3331 82.0902 82.3328 81.8011ZM82.9409 81.8011C82.9409 81.8965 82.9692 81.9898 83.0222 82.0691C83.0752 82.1484 83.1505 82.2103 83.2387 82.2468C83.3268 82.2833 83.4238 82.2928 83.5174 82.2742C83.611 82.2556 83.697 82.2097 83.7644 82.1422C83.8319 82.0748 83.8779 81.9888 83.8965 81.8953C83.9151 81.8017 83.9056 81.7047 83.869 81.6166C83.8325 81.5284 83.7707 81.4531 83.6913 81.4001C83.612 81.3471 83.5187 81.3188 83.4233 81.3188C83.2954 81.319 83.1728 81.3698 83.0823 81.4603C82.9919 81.5507 82.941 81.6733 82.9409 81.8011Z" fill="#6C63FF"/>
<path d="M90.1976 81.8011C90.1976 81.5855 90.2616 81.3747 90.3814 81.1955C90.5012 81.0162 90.6716 80.8764 90.8708 80.7939C91.0701 80.7114 91.2893 80.6898 91.5009 80.7319C91.7124 80.774 91.9067 80.8778 92.0592 81.0303C92.2117 81.1827 92.3156 81.377 92.3577 81.5885C92.3997 81.8 92.3781 82.0192 92.2956 82.2184C92.2131 82.4176 92.0733 82.5878 91.894 82.7076C91.7146 82.8274 91.5038 82.8914 91.2881 82.8914C90.999 82.8911 90.7218 82.7761 90.5174 82.5717C90.3129 82.3673 90.1979 82.0902 90.1976 81.8011ZM90.8057 81.8011C90.8057 81.8965 90.834 81.9898 90.887 82.0691C90.94 82.1484 91.0153 82.2103 91.1035 82.2468C91.1917 82.2833 91.2887 82.2928 91.3822 82.2742C91.4758 82.2556 91.5618 82.2097 91.6293 82.1422C91.6967 82.0748 91.7427 81.9888 91.7613 81.8953C91.7799 81.8017 91.7704 81.7047 91.7338 81.6166C91.6973 81.5284 91.6355 81.4531 91.5562 81.4001C91.4768 81.3471 91.3835 81.3188 91.2881 81.3188C91.1602 81.319 91.0376 81.3698 90.9471 81.4603C90.8567 81.5507 90.8058 81.6733 90.8057 81.8011Z" fill="#6C63FF"/>
<path d="M101.602 83.7665C101.602 83.5509 101.665 83.3401 101.785 83.1608C101.905 82.9815 102.075 82.8418 102.275 82.7593C102.474 82.6767 102.693 82.6552 102.905 82.6972C103.116 82.7393 103.311 82.8431 103.463 82.9956C103.616 83.1481 103.719 83.3423 103.762 83.5538C103.804 83.7653 103.782 83.9845 103.699 84.1837C103.617 84.3829 103.477 84.5532 103.298 84.673C103.119 84.7928 102.908 84.8567 102.692 84.8567C102.403 84.8564 102.126 84.7414 101.921 84.5371C101.717 84.3327 101.602 84.0555 101.602 83.7665ZM102.21 83.7665C102.21 83.8619 102.238 83.9551 102.291 84.0345C102.344 84.1138 102.419 84.1756 102.507 84.2121C102.596 84.2486 102.693 84.2582 102.786 84.2396C102.88 84.2209 102.966 84.175 103.033 84.1076C103.101 84.0401 103.147 83.9541 103.165 83.8606C103.184 83.767 103.174 83.67 103.138 83.5819C103.101 83.4938 103.039 83.4184 102.96 83.3654C102.881 83.3124 102.787 83.2842 102.692 83.2842C102.564 83.2843 102.441 83.3352 102.351 83.4256C102.261 83.516 102.21 83.6386 102.21 83.7665Z" fill="#6C63FF"/>
<path d="M116.938 97.1332C116.938 96.9176 117.002 96.7068 117.122 96.5275C117.242 96.3482 117.412 96.2085 117.611 96.126C117.81 96.0434 118.03 96.0218 118.241 96.0639C118.453 96.106 118.647 96.2098 118.8 96.3623C118.952 96.5148 119.056 96.709 119.098 96.9205C119.14 97.132 119.118 97.3512 119.036 97.5504C118.953 97.7496 118.814 97.9199 118.634 98.0397C118.455 98.1595 118.244 98.2234 118.028 98.2234C117.739 98.2231 117.462 98.1081 117.258 97.9038C117.053 97.6994 116.938 97.4222 116.938 97.1332ZM117.546 97.1332C117.546 97.2286 117.574 97.3218 117.627 97.4012C117.68 97.4805 117.756 97.5423 117.844 97.5788C117.932 97.6153 118.029 97.6249 118.123 97.6063C118.216 97.5876 118.302 97.5417 118.37 97.4743C118.437 97.4068 118.483 97.3209 118.502 97.2273C118.52 97.1337 118.511 97.0368 118.474 96.9486C118.438 96.8605 118.376 96.7851 118.296 96.7322C118.217 96.6792 118.124 96.6509 118.028 96.6509C117.901 96.651 117.778 96.7019 117.687 96.7923C117.597 96.8827 117.546 97.0053 117.546 97.1332Z" fill="#6C63FF"/>
<path d="M111.433 90.4502C111.433 90.2346 111.497 90.0238 111.616 89.8445C111.736 89.6652 111.906 89.5254 112.106 89.4429C112.305 89.3603 112.524 89.3387 112.736 89.3808C112.947 89.4229 113.142 89.5267 113.294 89.6792C113.447 89.8317 113.551 90.026 113.593 90.2375C113.635 90.449 113.613 90.6682 113.531 90.8674C113.448 91.0667 113.308 91.2369 113.129 91.3567C112.95 91.4765 112.739 91.5405 112.523 91.5404C112.234 91.5401 111.957 91.4252 111.752 91.2208C111.548 91.0164 111.433 90.7393 111.433 90.4502ZM112.041 90.4502C112.041 90.5457 112.069 90.6389 112.122 90.7183C112.175 90.7976 112.25 90.8595 112.338 90.896C112.427 90.9325 112.524 90.9421 112.617 90.9234C112.711 90.9048 112.797 90.8589 112.864 90.7914C112.932 90.7239 112.978 90.638 112.996 90.5444C113.015 90.4508 113.005 90.3538 112.969 90.2657C112.932 90.1775 112.871 90.1022 112.791 90.0492C112.712 89.9962 112.619 89.9679 112.523 89.9679C112.395 89.968 112.273 90.0189 112.182 90.1093C112.092 90.1998 112.041 90.3224 112.041 90.4502Z" fill="#6C63FF"/>
<path d="M280.5 196.896H4.14816V197.503H280.5V196.896Z" fill="#3F3D56"/>
</g>
<defs>
<clipPath id="clip0_595_30882">
<rect width="280" height="196.875" fill="white" transform="translate(0.500031 0.765625)"/>
</clipPath>
</defs>
</svg>
